<?xml version="1.0" encoding="UTF-8"?>
<svg xmlns="http://www.w3.org/2000/svg" viewBox="0 0 154.9924 123.5853">
  <defs>
    <style>
      .d {
        fill: #d42008;
      }

      .e {
        stroke: #1a1a1a;
      }

      .e, .f, .g, .h, .i, .j, .k {
        stroke-width: .2064px;
      }

      .e, .h {
        fill: none;
      }

      .e, .k {
        stroke-linejoin: round;
      }

      .f, .g, .h, .i, .j {
        stroke-miterlimit: 10;
      }

      .f, .g, .j, .k {
        stroke: #000;
      }

      .f, .i {
        fill: #754c24;
      }

      .l, .g {
        fill: #00792d;
      }

      .h, .i {
        stroke: #8c6239;
      }

      .m, .k {
        fill: #333;
      }

      .j {
        fill: #c69c6d;
      }

      .n {
        fill: #f2d709;
      }
    </style>
  </defs>
  <g id="a" data-name="Capa 1"/>
  <g id="b" data-name="Capa 2">
    <g id="c" data-name="Instruments Group">
      <g>
        <rect class="m" x="17.0772" y="27.6828" width="1.7504" height=".5678" transform="translate(-15.2371 26.2672) rotate(-54.3715)"/>
        <path class="m" d="M17.6931,28.3155c.5649-.0298,1.0624,.3054,1.2686,.8321,.1034,.2641,.1997,.9042-.2513,1.2067-.4698,.3152-1.2211,.0163-1.2677-.5474,.0358,.4955-.7609,1.1118-1.2561,1.0717s-.8949-.5417-.849-1.0364,.5064-.9073,1.0029-.9256c-.6068,.028-.9826-.7624-.7902-1.2008,.2017-.4595,.4558-.563,.9095-.5425,.5343,.0241,1.2185,.4154,1.2333,1.1423Z"/>
        <rect class="m" x="12.118" y="22.9584" width="1.7504" height=".5678" transform="translate(-13.4673 20.264) rotate(-54.3715)"/>
        <path class="m" d="M12.7339,23.5911c.5649-.0298,1.0624,.3054,1.2686,.8321,.1034,.2641,.1997,.9042-.2513,1.2067-.4698,.3152-1.2211,.0163-1.2677-.5474,.0358,.4955-.7609,1.1118-1.2561,1.0717s-.8949-.5417-.849-1.0364,.5064-.9073,1.0029-.9256c-.6068,.028-.9826-.7624-.7902-1.2008,.2017-.4595,.4558-.563,.9095-.5425,.5343,.0241,1.2185,.4154,1.2333,1.1423Z"/>
        <rect class="m" x="7.4446" y="18.079" width="1.7504" height=".5678" transform="translate(-11.4523 14.4284) rotate(-54.3715)"/>
        <path class="m" d="M8.0605,18.7117c.5649-.0298,1.0624,.3054,1.2686,.8321,.1034,.2641,.1997,.9042-.2513,1.2067-.4698,.3152-1.2211,.0163-1.2677-.5474,.0358,.4955-.7609,1.1118-1.2561,1.0717s-.8949-.5417-.849-1.0364,.5064-.9073,1.0029-.9256c-.6068,.028-.9826-.7624-.7902-1.2008,.2017-.4595,.4558-.563,.9095-.5425,.5343,.0241,1.2185,.4154,1.2333,1.1423Z"/>
        <rect class="m" x="2.5612" y="13.1075" width="1.7504" height=".5678" transform="translate(-9.4501 8.3836) rotate(-54.3715)"/>
        <path class="m" d="M3.1771,13.7402c.5649-.0298,1.0624,.3054,1.2686,.8321,.1034,.2641,.1997,.9042-.2513,1.2067-.4698,.3152-1.2211,.0163-1.2677-.5474,.0358,.4955-.7609,1.1118-1.2561,1.0717s-.8949-.5417-.849-1.0364,.5064-.9073,1.0029-.9256c-.6068,.028-.9826-.7624-.7902-1.2008,.2017-.4595,.4558-.563,.9095-.5425,.5343,.0241,1.2185,.4154,1.2333,1.1423Z"/>
        <path class="g" d="M89.8888,71.9222c1.0696,1.4945-.3588,3.7352-2.1555,4.1221s-3.6107-.4569-5.2212-1.3424c-1.8785-1.0329-3.7074-2.1559-5.4783-3.364-1.6281-1.1107-3.4519-2.354-5.3921-2.0081-2.1422,.382-3.5226,2.7079-3.475,4.8834,.0476,2.1755,1.1963,4.1744,2.5174,5.9034,3.2483,4.251,7.767,7.5183,12.8218,9.2708,5.9688,2.0694,11.891,2.8818,16.3728,7.334,5.4128,5.377,6.3882,13.8994,11.1976,19.8223,3.4774,4.2824,8.9218,6.8987,14.4381,6.938,5.7548,.041,9.8797-3.1614,14.5356-6.7314,1.8502-1.4187,6.7116-5.4051,10.5733-12.2381,2.1575-3.8175,4.3451-7.6884,4.2636-13.1325-.0632-4.2241-1.4618-7.339-1.9308-8.3121-3.3961-7.047-10.1639-9.9272-11.9899-10.6731-6.8665-2.805-9.1174,.2291-14.6128-3.2705-3.2052-2.0412-5.7853-4.9027-8.4226-7.6386s-5.4461-5.4315-8.9059-7.0031-7.7251-1.8454-10.9344,.1895c-.7488,.4748-1.0472,1.6084-.4678,2.2796,.5793,.6712,1.5026,.9357,2.3849,1.0221,.8824,.0864,1.781,.0295,2.6486,.2121,2.5058,.5273,4.3026,3.2932,3.7657,5.797-.5484,2.5573-3.0002,4.2275-5.395,5.279-3.0947,1.3588-7.7623,2.5002-11.1383,2.6607Z"/>
        <path class="m" d="M104.4907,87.0465c1.1994,1.7725,2.0901,3.7459,3.37,5.4612s3.0809,3.209,5.2099,3.4279c1.8372,.1889,3.645-.5975,5.1804-1.6239,4.121-2.7548,6.9612-7.3022,11.4621-9.3789,5.2777-2.4351,11.4551-.8956,17.2374-1.4858,1.0705-.1093,2.0836-.6191,2.4928-1.6142,.4103-.9977-.095-1.8603-.5337-2.345-.5498-.6074-3.3221-3.0852-6.1641-4.129-7.7754-2.8557-8.8568-.2022-15.1069-3.494-3.2162-1.6939-4.2286-2.8234-7.0145-5.0271s-6.8015-7.7533-9.7134-9.7876c-4.2247-2.9514-8.4023-2.6648-8.0818-.9799,.3364,1.7688,4.9404,2.1658,5.1486,6.5824,.156,3.3087-1.995,6.3134-4.8963,7.9117-2.5197,1.3881-5.3313,2.1313-7.9905,3.1948-1.2985,.5193-4.1773,1.4486-4.0849,3.2558,.1229,2.4041,4.7067,2.9724,6.3507,3.7954,2.8546,1.4289,5.344,3.5911,7.134,6.2364Z"/>
        <rect class="m" x="132.5066" y="95.402" width="11.4652" height="6.6982" rx="1.8954" ry="1.8954" transform="translate(-22.5549 153.5884) rotate(-54.3715)"/>
        <rect class="m" x="121.2387" y="90.3925" width="14.6577" height="3.4963" rx="1.6137" ry="1.6137" transform="translate(-21.2195 142.9674) rotate(-54.3715)"/>
        <rect class="m" x="110.6983" y="82.9102" width="13.044" height="3.4963" rx="1.6137" ry="1.6137" transform="translate(-19.875 130.6206) rotate(-54.3715)"/>
        <g>
          <path class="f" d="M31.1302,23.8365c-.5381,.5829-2.3854,2.6861-3.1145,4.8339,.3575,.2036,.7041,.4262,1.0375,.6684,7.0023,5.0869,68.6237,50.0267,71.2947,49.7733,3.0054-.2851,6.5092-6.2159,5.5068-7.8806-1.0222-1.6976-7.0998-5.3289-7.0998-5.3289L31.1302,23.8365Z"/>
          <path class="h" d="M99.0184,78.3991c2.3484-2.782,4.0158-5.2527,5.7169-8.4715"/>
          <path class="h" d="M96.6339,76.9836c2.4886-2.5955,4.3767-5.3871,5.859-8.6632"/>
          <path class="h" d="M92.9002,74.8078c2.9212-2.1364,5.1064-5.2605,6.1113-8.7373"/>
          <path class="h" d="M89.887,72.7959c2.409-2.5381,4.2087-5.6507,5.2063-9.0047"/>
          <path class="h" d="M86.926,70.6717c2.4991-2.3758,4.5083-5.2648,5.866-8.4345"/>
          <path class="h" d="M83.0446,68.1216c2.1645-3.0201,4.6548-5.1518,6.0152-8.2745"/>
          <path class="h" d="M79.5186,65.5791c2.34-2.3864,4.3796-5.0669,6.0557-7.9584"/>
          <path class="h" d="M76.047,62.9841c2.0387-2.3536,3.8489-4.9049,5.3971-7.6065"/>
          <path class="h" d="M72.3691,60.5145c1.8932-2.4503,3.6276-5.0232,5.1887-7.6973"/>
          <path class="h" d="M68.2741,57.5775c2.0338-2.3008,3.6642-4.9571,4.7951-7.8121"/>
          <path class="h" d="M65.6806,55.5529c1.8294-2.2329,3.5-4.596,4.995-7.0654"/>
          <path class="h" d="M62.0202,53.0975c1.6808-2.2938,3.2303-4.6837,4.6386-7.1542"/>
          <path class="h" d="M59.3956,51.2703c1.6036-2.3067,3.0273-4.7385,4.2541-7.2659"/>
          <path class="h" d="M56.6065,49.2228c1.6962-2.0747,3.2252-4.286,4.5675-6.6055"/>
          <path class="h" d="M53.8598,47.3039l4.6743-6.6313"/>
          <path class="h" d="M52.4239,46.324c1.4584-2.2099,2.8509-4.4634,4.175-6.7563"/>
          <path class="h" d="M50.4228,45.0607c1.3964-2.2287,2.9155-4.3807,4.5479-6.4428"/>
          <path class="h" d="M48.7902,43.6173c1.4742-1.994,2.8677-4.0477,4.176-6.1544"/>
          <path class="h" d="M47.204,42.5879l4.1063-6.1571"/>
          <path class="h" d="M45.3926,41.4006l4.165-6.1683"/>
          <path class="h" d="M43.8545,40.076c1.3389-1.9461,2.6403-3.9179,3.9033-5.9141"/>
          <path class="h" d="M42.3753,39.074l4.0081-5.8393"/>
          <path class="h" d="M41.0479,38.1614c1.1552-2.0612,2.3806-4.083,3.6733-6.0609"/>
          <path class="h" d="M39.4352,37.0189c1.3012-1.9417,2.5292-3.9325,3.6804-5.9667"/>
          <path class="h" d="M37.8521,35.9396c1.2024-1.9091,2.4726-3.7755,3.8073-5.5946"/>
          <path class="h" d="M36.4582,34.776l3.3886-5.6161"/>
          <path class="h" d="M37.9966,28.0831c-.6989,2.0542-1.7309,3.9946-3.0434,5.7224"/>
          <line class="h" x1="33.3716" y1="32.4368" x2="36.7913" y2="27.358"/>
          <line class="i" x1="35.533" y1="26.5752" x2="32.3005" y2="31.7003"/>
          <line class="i" x1="29.3638" y1="29.5645" x2="32.4798" y2="24.676"/>
          <line class="h" x1="30.9153" y1="30.7704" x2="34.094" y2="25.7389"/>
          <path class="g" d="M29.4105,22.6456c-.847-.6945-1.2835-1.3528-1.5397-2.4166-.2412-1.0014-.2455-2.0334-.1649-3.0651,.0899-1.1499-.5726-2.221-1.6293-2.6832-3.6775-1.6087-8.295-1.7843-11.8753-3.538-.9051-.4434-1.5251-1.3158-1.6381-2.3173-.3133-2.7777-.92-5.469-3.1737-7.1144C6.8327-.3557,2.8649-.8064,.916,2.928-.6258,5.8825,.0859,9.5225,2.5424,11.7745c6.3328,5.8054,11.2001,12.6681,18.1107,17.7659,.529,.3903,1.251,.3931,1.7828,.0066,.9032-.6563,1.8555-1.3361,2.9439-1.6462,.206-.0587,.4414-.0573,.6908-.0172,.7255-2.1757,2.7436-4.5632,3.3398-5.2381Z"/>
          <path class="j" d="M31.1302,23.8365l-.2637-.1641c-.588-.3788-1.0655-.7066-1.456-1.0268-.5962,.6749-2.6143,3.0624-3.3398,5.2381,.3916,.0631,.8181,.2235,1.2227,.4105,.2469,.1141,.4866,.2418,.7224,.3761,.7291-2.1478,2.5763-4.251,3.1145-4.8339Z"/>
        </g>
        <path class="e" d="M22.9664,24.4215c.7421,.5126,4.5397,3.1347,5.2819,3.6471,36.7501,25.3676,70.954,48.7367,107.8557,73.8707"/>
        <line class="e" x1="17.8795" y1="19.5384" x2="137.8705" y2="99.4745"/>
        <line class="e" x1="13.2011" y1="14.5365" x2="139.4251" y2="97.3054"/>
        <path class="e" d="M7.7596,7.8464c4.9597,3.7522,12.8931,9.6407,22.8862,16.5387,16.4365,11.3459,29.1593,19.0133,33.4255,21.6037,14.0736,8.5453,35.0755,21.6407,76.501,49.7159"/>
        <circle class="k" cx="22.5557" cy="24.9947" r=".7051"/>
        <circle class="k" cx="17.4784" cy="20.098" r=".6885"/>
        <circle class="k" cx="12.8107" cy="15.0812" r=".6701"/>
        <circle class="k" cx="7.35" cy="8.4179" r=".7031"/>
        <circle class="l" cx="133.9122" cy="78.2772" r="1.3266"/>
        <circle class="n" cx="139.5692" cy="79.0672" r="1.3266"/>
        <circle class="d" cx="144.9317" cy="80.268" r="1.3266"/>
      </g>
    </g>
  </g>
</svg>