<?xml version="1.0" encoding="UTF-8"?>
<svg xmlns="http://www.w3.org/2000/svg" viewBox="0 0 181.0415 79.7734">
  <defs>
    <style>
      .d, .e, .f, .g, .h, .i, .j, .k, .l, .m, .n {
        stroke: #000;
        stroke-miterlimit: 10;
      }

      .d, .e, .g, .m, .n {
        stroke-width: .3799px;
      }

      .d, .h {
        fill: #666;
      }

      .o {
        fill: #d42008;
      }

      .e, .i {
        fill: gray;
      }

      .f, .h, .i, .j, .k, .l {
        stroke-width: .3439px;
      }

      .f, .n {
        fill: #e2ca88;
      }

      .g, .l {
        fill: #4d4d4d;
      }

      .p {
        fill: #00792d;
      }

      .j {
        fill: #9c6a24;
      }

      .k, .m {
        fill: #b57b2a;
      }

      .q {
        fill: #f2d709;
      }
    </style>
  </defs>
  <g id="a" data-name="Capa 1"/>
  <g id="b" data-name="Capa 2">
    <g id="c" data-name="Instruments Group">
      <g>
        <path class="j" d="M85.1215,30.802c-.648,.0121-1.328,.0329-1.8882,.3587-1.0483,.6096-1.2732,2.0023-1.3624,3.2117-.5826,7.9001-.1331,15.8758,1.3335,23.6604l29.9725-.1721c1.2501-.0072,1.0463-13.6033,.9431-14.9179-.2494-3.1778-.3246-8.3929-2.7181-10.8947-2.4249-2.5346-6.9547-1.6084-10.0596-1.5502-5.4069,.1014-10.8138,.2028-16.2207,.3041Z"/>
        <path class="m" d="M3.8193,22.1691c5.4412,16.034,8.6989,32.5648,9.6933,49.1871,9.0223,3.9587,19.1089,6.0679,29.3315,6.4715,10.2226,.4036,28.0264-.7563,37.9988-3.8614,5.518-16.3974,8.8765-33.3262,8.9377-50.3354-12.5155,1.1414-25.548,.0454-38.1216-.5251-15.8671-.7199-31.9726-.2168-47.8397-.9368Z"/>
        <path class="d" d="M67.9187,26.8009l9.6525,9.0058c.9535,.8896,1.9882,1.8222,3.3812,2.137,2.1857,.494,4.3987-.7019,5.9744-2.0378,4.9118-4.1641,7.0253-10.4181,5.4272-16.0593-1.0291,.8881-2.506,1.5903-4.0001,1.6207,.9282,2.2642,.8328,4.6537-.1356,6.9066s-2.8767,4.2266-5.3318,5.5144c-2.0822-.115-3.8555-1.4909-5.0871-2.8713s-2.1937-2.947-3.7271-4.1069-4.3373-.9514-6.1536-.1092Z"/>
        <path class="e" d="M77.948,67.0617c-1.2123-6.7461,.6718-13.8355,5.1979-19.5576,2.654-3.3554,6.3362-6.6465,6.1443-10.6418-.053-1.1038-.4455-2.2367-1.3629-3.0462s-2.4279-1.2176-3.6737-.7954c-.5861,.1986-.7378,.803-1.3671,.8677,.5397-2.2843,3.5237-3.9697,6.1853-3.1588s4.2915,3.1749,4.4357,5.4986-.9626,4.5896-2.4263,6.5834-3.292,3.7928-4.806,5.7612c-3.8548,5.0116-5.5586,11.1104-4.7484,16.997"/>
        <path class="k" d="M105.3582,22.1691c4.4584,16.034,7.1278,32.5648,7.9426,49.1871,7.3928,3.9587,15.6576,6.0679,24.0339,6.4715,8.3762,.4036,22.9645-.7563,31.1357-3.8614,4.5213-16.3974,7.2733-33.3262,7.3235-50.3354-10.2551,1.1414-20.9337,.0454-31.2363-.5251-13.0013-.7199-26.1979-.2168-39.1992-.9368Z"/>
        <path class="h" d="M125.8108,27.6589l-7.9092,9.0058c-.7813,.8896-1.6291,1.8222-2.7705,2.137-1.791,.494-3.6042-.7019-4.8954-2.0378-4.0247-4.1641-5.7565-10.4181-4.447-16.0593,.8433,.8881,2.0534,1.5903,3.2776,1.6207-.7606,2.2642-.6824,4.6537,.1111,6.9066s2.3571,4.2266,4.3688,5.5144c1.7061-.115,3.1591-1.4909,4.1683-2.8713s1.7975-2.947,3.054-4.1069,3.554-.9514,5.0422-.1092Z"/>
        <path class="i" d="M117.5929,67.9197c.9934-6.7461-.5505-13.8355-4.2591-19.5576-2.1746-3.3554-5.1918-6.6465-5.0345-10.6418,.0434-1.1038,.365-2.2367,1.1167-3.0462s1.9894-1.2176,3.0102-.7954c.4802,.1986,.6045,.803,1.1202,.8677-.4423-2.2843-2.8873-3.9697-5.0681-3.1588s-3.5164,3.1749-3.6346,5.4986,.7887,4.5896,1.9881,6.5834,2.6974,3.7928,3.938,5.7612c3.1586,5.0116,4.5546,11.1104,3.8908,16.997"/>
        <path class="h" d="M157.8804,26.8009l7.9092,9.0058c.7813,.8896,1.6291,1.8222,2.7705,2.137,1.791,.494,3.6042-.7019,4.8954-2.0378,4.0247-4.1641,5.7565-10.4181,4.447-16.0593-.8433,.8881-2.0534,1.5903-3.2776,1.6207,.7606,2.2642,.6824,4.6537-.1111,6.9066s-2.3571,4.2266-4.3688,5.5144c-1.7061-.115-3.1591-1.4909-4.1683-2.8713s-1.7975-2.947-3.054-4.1069-3.554-.9514-5.0422-.1092Z"/>
        <path class="i" d="M166.0983,67.0617c-.9934-6.7461,.5505-13.8355,4.2591-19.5576,2.1746-3.3554,5.1918-6.6465,5.0345-10.6418-.0434-1.1038-.365-2.2367-1.1167-3.0462s-1.9894-1.2176-3.0102-.7954c-.4802,.1986-.6045,.803-1.1202,.8677,.4423-2.2843,2.8873-3.9697,5.0681-3.1588s3.5164,3.1749,3.6346,5.4986-.7887,4.5896-1.9881,6.5834-2.6974,3.7928-3.938,5.7612c-3.1586,5.0116-4.5546,11.1104-3.8908,16.997"/>
        <path class="f" d="M105.6171,13.9078c.401-2.0269,1.2222-6.1287,2.3968-7.8285,21.4978-7.8523,46.0923-7.9411,67.4567,.2672,.7354,1.6342,1.7134,4.0105,2.4488,5.6448-.663,2.3029-2.823,5.4543-4.9996,6.4569s-4.5865,1.3575-6.9595,1.6919c-10.0516,1.4165-36.7665-.0723-46.7659-1.8198-6.8552-1.198-9.0177,.7401-13.5772-4.4125Z"/>
        <path class="l" d="M106.0593,11.0172c.6109-1.699-1.6954,1.0351-3.1298,2.1317-.9016,2.9588-.6217,6.4107,.3753,9.3387,24.0097,11.5533,50.8937,11.6194,74.8757,.4261,1.7657-.8241,2.8412-2.6533,2.6715-4.5944-.1473-1.6841-.331-3.4344-.4363-5.0419-.0574-.8759-.5339-1.6695-1.2746-2.1405l-1.952-1.2414s.6781,2.9092-1.7733,4.1349-23.6557,7.967-63.1228,2.2062c0,0-7.6724-1.2184-6.2337-5.2194Z"/>
        <path d="M173.373,8.1067c-1.5852,1.2418-3.5753,1.8137-5.4962,2.3224-4.874,1.1624-9.9151,1.3908-14.9072,1.3333l-2.9945-.1068c3.9886-.0733,7.9781-.1595,11.9456-.5729,3.8831-.5124,8.0649-.8634,11.4522-2.9761h0Z"/>
        <path d="M109.0723,8.1067c5.6853,3.0716,12.3356,3.7896,18.7052,3.9754-6.3577,.2907-13.2393-.4867-18.7052-3.9754h0Z"/>
        <path class="l" d="M112.383,60.3296c-1.1257,1.1591-1.6823,2.8467-1.4672,4.448,.2387,1.7765,.1338,3.6416,.0934,5.472-.026,1.179,.6344,2.2585,1.6825,2.7991,16.9301,8.731,43.9305,8.1696,57.2085,1.5306,2.2916-2.8191,3.4728-9.9281,1.6668-13.2479-18.376,8.6714-40.7159,9.1634-59.1494,.6152,.2289-.2402,.143-1.3367-.0346-1.6169Z"/>
        <path class="d" d="M28.7802,27.6589l-9.6525,9.0058c-.9535,.8896-1.9882,1.8222-3.3812,2.137-2.1857,.494-4.3987-.7019-5.9744-2.0378-4.9118-4.1641-7.0253-10.4181-5.4272-16.0593,1.0291,.8881,2.506,1.5903,4.0001,1.6207-.9282,2.2642-.8328,4.6537,.1356,6.9066s2.8767,4.2266,5.3318,5.5144c2.0822-.115,3.8555-1.4909,5.0871-2.8713s2.1937-2.947,3.7271-4.1069,4.3373-.9514,6.1536-.1092Z"/>
        <path class="n" d="M4.1353,13.9078c.4893-2.0269,1.4917-6.1287,2.9251-7.8285,26.2365-7.8523,56.2521-7.9411,82.3258,.2672,.8975,1.6342,2.0911,4.0105,2.9886,5.6448-.8091,2.3029-3.4453,5.4543-6.1017,6.4569s-5.5975,1.3575-8.4936,1.6919c-12.2673,1.4165-44.8707-.0723-57.0743-1.8198-8.3662-1.198-11.0054,.7401-16.57-4.4125Z"/>
        <path class="g" d="M4.675,11.0172c.7456-1.699-2.0692,1.0351-3.8196,2.1317-1.1003,2.9588-.7587,6.4107,.458,9.3387,29.302,11.5533,62.1119,11.6194,91.3801,.4261,2.1548-.8241,3.4675-2.6533,3.2603-4.5944-.1798-1.6841-.404-3.4344-.5324-5.0419-.07-.8759-.6516-1.6695-1.5556-2.1405l-2.3823-1.2414s.8275,2.9092-2.1642,4.1349-28.87,7.967-77.0366,2.2062c0,0-9.3635-1.2184-7.6078-5.2194Z"/>
        <path d="M86.8263,8.1067c-2.0573,1.3022-4.4855,1.848-6.8391,2.3619-5.9529,1.1501-12.0409,1.3711-18.0887,1.3025l-3.6275-.1154c4.8332-.0871,9.6661-.1773,14.4826-.5812,4.7379-.5247,9.7549-.7967,14.0726-2.9678h0Z"/>
        <path d="M8.3521,8.1067c7.1456,3.1185,15.115,3.7461,22.8283,3.9754-7.7003,.2943-15.8876-.3824-22.8283-3.9754h0Z"/>
        <path class="e" d="M18.7509,67.9197c1.2123-6.7461-.6718-13.8355-5.1979-19.5576-2.654-3.3554-6.3362-6.6465-6.1443-10.6418,.053-1.1038,.4455-2.2367,1.3629-3.0462s2.4279-1.2176,3.6737-.7954c.5861,.1986,.7378,.803,1.3671,.8677-.5397-2.2843-3.5237-3.9697-6.1853-3.1588s-4.2915,3.1749-4.4357,5.4986,.9626,4.5896,2.4263,6.5834,3.292,3.7928,4.806,5.7612c3.8548,5.0116,5.5586,11.1104,4.7484,16.997"/>
        <path class="g" d="M12.3926,60.3296c-1.3738,1.1591-2.0531,2.8467-1.7906,4.448,.2913,1.7765,.1633,3.6416,.114,5.472-.0317,1.179,.7742,2.2585,2.0533,2.7991,20.6619,8.731,53.6138,8.1696,69.8186,1.5306,2.7967-2.8191,4.2383-9.9281,2.0343-13.2479-22.4265,8.6714-49.6906,9.1634-72.1874,.6152,.2794-.2402,.1745-1.3367-.0423-1.6169Z"/>
        <rect class="p" x="132.9551" y="42.8495" width="19.1938" height="2.3771"/>
        <rect class="q" x="132.9551" y="45.2266" width="19.1938" height="2.3771"/>
        <rect class="o" x="132.9551" y="47.6037" width="19.1938" height="2.3771"/>
        <rect x="132.9551" y="49.9809" width="19.1938" height="2.3771"/>
        <g>
          <rect class="p" x="38.5244" y="42.8495" width="19.1938" height="2.3771"/>
          <rect class="q" x="38.5244" y="45.2266" width="19.1938" height="2.3771"/>
          <rect class="o" x="38.5244" y="47.6037" width="19.1938" height="2.3771"/>
          <rect x="38.5244" y="49.9809" width="19.1938" height="2.3771"/>
        </g>
      </g>
    </g>
  </g>
</svg>