<?xml version="1.0" encoding="UTF-8"?>
<svg xmlns="http://www.w3.org/2000/svg" viewBox="0 0 159.0789 120.2907">
  <defs>
    <style>
      .d {
        fill: #d42008;
      }

      .e {
        fill: #4d4d4d;
      }

      .e, .f, .g, .h, .i, .j, .k, .l, .m, .n {
        stroke: #000;
        stroke-miterlimit: 10;
      }

      .e, .h {
        stroke-width: .3995px;
      }

      .o, .i {
        fill: #e2ca88;
      }

      .p, .k {
        fill: #00792d;
      }

      .f {
        stroke-width: .2862px;
      }

      .f, .l {
        fill: #fb3;
      }

      .g {
        stroke-width: .2426px;
      }

      .g, .h, .j {
        fill: #b57b2a;
      }

      .i, .j, .k, .l, .m, .n {
        stroke-width: .2443px;
      }

      .m {
        fill: #c1272d;
      }

      .q {
        fill: #f2d709;
      }

      .n {
        fill: #666;
      }
    </style>
  </defs>
  <g id="a" data-name="Capa 1"/>
  <g id="b" data-name="Capa 2">
    <g id="c" data-name="Instruments Group">
      <g>
        <g>
          <path class="n" d="M135.7203,4.34l-1.0611-3.3481c.4463-.6139,1.4331-1.0348,2.1571-.807,.0023,1.6339,.081,3.6705,.6078,5.2172-.5528-.3121-1.151-.75-1.7038-1.0621Z"/>
          <path class="n" d="M123.5431,95.9047c-1.4107-.0694-2.7836-.1977-4.1943-.2671,.0635-1.056,1.0654-1.9537,2.1168-2.0712,2.2961-5.1004,12.3983-31.1418,17.1166-34.1458,.0258,.8306-.3209,1.896-.2951,2.7267-4.0412,1.8501-13.6259,26.9086-15.3219,31.0168,.889,.2939,1.0745,1.9468,.578,2.7406Z"/>
          <path class="n" d="M154.001,96.9957c1.4093,.0943,2.7877,.1258,4.197,.2201,.0591-1.0563-.8322-2.0639-1.8629-2.3023-1.6904-5.3319-13.5289-31.3018-17.8679-34.8316-.1217,.822,.0993,1.9204-.0224,2.7425,3.7999,2.3054,15.2382,27.2391,16.4474,31.516-.9171,.189-1.2925,1.8093-.8912,2.6553Z"/>
          <path class="n" d="M137.2064,101.3361c.7189-12.9216,.3011-78.5406-.602-91.4507,.6422-.1748,1.2847-.1906,1.8038,.2261,.5456,5.964,.1807,86.1184,.0327,91.3667,1.1531,1.4342,1.8013,3.1205,1.2548,4.8777-1.233-.5445-2.6677-.6768-4.0007-.4769-.4735-1.748-.0547-3.6335,1.5114-4.5429Z"/>
          <path class="f" d="M116.8223,13.0185c-.4621,.053-.4783,.5179-.0161,.4657,6.0222-.6805,13.4397,.7493,18.3085,2.4861,1.4921,.5323,3.2202,1.1851,4.9944,.7702,.9601-.2245,1.6702-.7169,2.3614-1.1729,4.2915-2.8311,9.8083-5.0652,15.7871-6.4218,.4498-.1021,.3437-.4719-.1241-.4296-11.9159,1.0773-24.7802,2.406-41.3112,4.3023Z"/>
          <path class="f" d="M158.581,7.6935c.4621-.053,.4783-.5179,.0161-.4657-6.0222,.6805-13.4397-.7493-18.3085-2.4861-1.4921-.5323-3.2202-1.1851-4.9944-.7702-.9601,.2245-1.6702,.7169-2.3614,1.1729-4.2915,2.8311-9.8083,5.0652-15.7871,6.4218-.4498,.1021-.3437,.4719,.1241,.4296,11.9159-1.0773,24.7802-2.406,41.3112-4.3023Z"/>
        </g>
        <path class="n" d="M109.8007,103.3429c-1.4094,.0924-2.7879,.122-4.1973,.2144-.0577-1.0563,.835-2.0627,1.866-2.2998,1.6977-5.3296,4.9821-10.1427,9.3259-13.6667,.1206,.8222-.102,1.9203,.0186,2.7425-3.803,2.3002-6.6859,6.0777-7.9009,10.353,.9168,.1903,1.2901,1.8111,.8876,2.6565Z"/>
        <path class="n" d="M125.4868,103.1216c1.4108-.0675,2.7838-.1939,4.1946-.2614-.062-1.0561-1.0627-1.9551-2.1139-2.0741-2.2891-5.1036-6.0965-9.5147-10.8107-12.5251-.0269,.8306,.3183,1.8965,.2914,2.7271,4.0386,1.8556,7.3299,5.2832,9.0203,9.3937-.8894,.2927-1.0771,1.9453-.5817,2.7398Z"/>
        <path class="n" d="M117.7421,107.1664c-.7637-12.9191-2.3385-25.7901-4.7122-38.5122,.618-.2471,1.2545-.3362,1.8178,.0183,1.2241,5.8624,3.6838,33.263,4.137,38.4939,1.3095,1.2929,2.1463,2.894,1.8044,4.7022-1.2872-.3999-2.7276-.3672-4.029-.0162-.6703-1.6824-.4699-3.6034,.9819-4.686Z"/>
        <g>
          <path class="g" d="M139.41,60.2783c1.2835,.4938,1.9682,2.4435,1.7086,3.2894-.1854,.6042-6.0866,2.7278-10.6993,3.6212-13.4423,2.6033-26.3798,3.6334-38.8194,1.6488-.9273-.3875-1.5871-2.507-.5023-3.5518,5.9937,.625,12.5901,.3455,18.9944-.2381,8.355-.7614,16.6826-1.826,24.8807-3.1808,1.6853-.2785,3.3696-.886,4.4372-1.5887Z"/>
          <path class="k" d="M137.5932,50.8939l2.0613,10.6475c.0713,.3684-.3053,.758-.9827,1.0106-12.4857,4.6548-30.8979,6.2267-44.9732,4.7829-1.2346-.1266-2.1255-.5672-2.3182-1.1594-.9798-3.0105-2.3338-6.2495-2.2519-9.3279,9.1785-.3929,18.5669-1.0783,27.714-2.1773,6.6888-.8037,14.4101-2.2799,20.7507-3.7764Z"/>
          <path class="g" d="M117.1857,48.0616c1.9691-.2021,4.5536-.5487,6.5268-.6771,5.3655-.3491,14.7681-.6813,14.8624,.8081,.0814,1.2864,.2381,2.1516,.3424,2.6142,.0562,.2494-.2205,.5121-.7053,.6661-4.3614,1.3854-25.7732,7.6984-49.8888,6.35-.7434-.0416-1.3172-.2749-1.5122-.6074-.4013-.6842-.8806-2.0052-.256-3.8834,0,0,1.1176-2.2409,30.6307-5.2706Z"/>
          <g>
            <path class="o" d="M133.9769,47.5515c1.42,.1268,2.9556,.4486,2.8339,1.0549-.1139,.5671-1.6015,1.0149-2.9199,1.3384-12.5817,3.0875-26.5963,5.0008-40.281,5.4993-2.3241,.0846-5.0678,.0345-5.8681-.7596-.5757-.5712,.1845-1.3364,1.4306-1.8667s2.8882-.8726,4.4986-1.1773c6.8654-1.299,14.0033-2.1693,21.1234-2.9062,6.1475-.6362,13.3306-1.7052,19.1825-1.1828Z"/>
            <path d="M133.9769,47.5515c3.7329,.308,3.7613,1.5119,.1032,2.3616-6.1436,1.5207-12.3637,2.7255-18.6281,3.6297-6.2633,.915-12.5698,1.5352-18.8905,1.8767-2.6234,.0724-5.3186,.4475-7.9189-.1554-1.6581-.4321-1.4766-1.5455-.0961-2.2613,2.391-1.1804,5.1089-1.4029,7.6805-1.9167,4.1613-.7057,8.3449-1.2674,12.5363-1.749,7.4032-.6579,17.8618-2.414,25.2135-1.7855h0Zm0,0c-7.3137-.5965-17.8333,1.2129-25.1995,1.9055-6.25,.8271-12.5915,1.5175-18.6869,3.1344-1.1824,.3041-3.8967,1.7456-1.3842,2.4472,2.5659,.5727,5.2298,.2325,7.8443,.1683,6.3173-.311,12.6207-.9003,18.8842-1.7845,6.2652-.8735,12.4897-2.0481,18.6379-3.5386,3.4779-.7853,3.7821-1.9813-.0959-2.3321h0Z"/>
          </g>
          <g>
            <path class="q" d="M90.1673,62.1047c-.1092-.4398-.2117-.8808-.3047-1.3243,16.3985,2.4731,32.8077-.8312,48.7048-4.8472,.0823,.4107,.1637,.8216,.2465,1.2323-15.9854,4.044-32.1213,7.3555-48.6466,4.9392Z"/>
            <path class="p" d="M89.8626,60.7804c-.0877-.4357-.4116-.7287-.4758-1.1685,16.3013,2.5133,33.1041-.8995,48.9328-4.915,.083,.4121,.1652,.8242,.2478,1.2364-15.8973,4.0161-32.306,7.3199-48.7048,4.8472Z"/>
            <path d="M90.8902,64.762c-.1244-.4432-.2492-.8864-.372-1.3301,17.1841,2.4211,32.0389-.8813,48.5428-5.0363,.0826,.4106,.1653,.8212,.2489,1.2317-16.6856,4.1754-31.0021,7.4932-48.4197,5.1348Z"/>
            <path class="d" d="M90.5183,63.4319c-.1213-.4413-.239-.8834-.351-1.3271,16.5252,2.4164,32.6613-.8953,48.6466-4.9392,.0827,.41,.1648,.82,.2472,1.23-16.5027,4.156-31.3601,7.4571-48.5428,5.0363Z"/>
          </g>
        </g>
        <path class="n" d="M5.2219,94.5344c-.3486-2.6911,.1931-5.4901,1.5206-7.8569-.9573-.6975-2.4202-1.3854-3.3775-2.0829-1.7698,2.3639-2.5328,5.4569-2.0656,8.3727,.1792,1.1185,2.791,1.5129,3.9225,1.5671Z"/>
        <path class="n" d="M29.329,95.7747c-.5547-2.6563-.2301-5.4887,.9112-7.9506-1.0081-.6218-2.5197-1.195-3.5278-1.8167-1.5825,2.4931-2.1052,5.6357-1.4149,8.5068,.2648,1.1014,2.8992,1.2936,4.0315,1.2605Z"/>
        <path class="n" d="M49.7338,117.8444c-.3486-2.6911,.1931-5.4901,1.5206-7.8569-.9573-.6975-2.4202-1.3854-3.3775-2.0829-1.7698,2.3639-2.5328,5.4569-2.0656,8.3727,.1792,1.1185,2.791,1.5129,3.9225,1.5671Z"/>
        <path class="n" d="M97.3931,117.8444c.3486-2.6911-.1931-5.4901-1.5206-7.8569,.9573-.6975,2.4202-1.3854,3.3775-2.0829,1.7698,2.3639,2.5328,5.4569,2.0656,8.3727-.1792,1.1185-2.791,1.5129-3.9225,1.5671Z"/>
        <g>
          <path class="h" d="M1.5832,75.1734c-1.2273,1.6504-1.6298,6.9736-1.2402,9.1317,.2783,1.5415,6.578,5.5296,11.3875,6.6274,14.016,3.199,27.285,2.3904,39.5985-6.2252,.8821-1.2734,1.234-7.0371-.0219-9.4944-5.9825,3.2786-12.7112,4.3381-19.2907,4.5442-8.5835,.2689-17.1846-.2687-25.6977-1.606-1.7501-.2749-3.5483-1.4169-4.7356-2.9776Z"/>
          <path class="e" d="M2.0217,49.9544l-.4976,28.6137c-.0172,.99,.4228,1.914,1.1473,2.3949,13.353,8.8642,32.2529,7.9925,46.3054,.3565,1.2326-.6698,2.0698-2.0729,2.1767-3.6858,.5431-8.1984,1.4314-17.1006,.888-25.1888-9.3632,1.4639-18.9829,2.2142-28.4198,1.8092-6.9007-.2962-14.9487-2.0832-21.6-4.2996Z"/>
          <path class="h" d="M22.2857,36.9358c-2.0263,.0036-4.6982-.2057-6.7176-.0067-5.4913,.541-15.0726,2.2259-14.9454,6.1757,.1098,3.4113,.0803,5.7337,.0438,6.9807-.0197,.6725,.3001,1.2893,.8146,1.563,4.6284,2.4627,27.2779,13.2653,51.5228,3.1468,.7473-.3119,1.2942-1.0828,1.4421-2.012,.3045-1.9119,.5929-5.5228-.3212-10.3011,0,0-1.468-5.5997-31.8391-5.5463Z"/>
          <g>
            <path class="o" d="M5.1878,40.1636c-1.4205,.7206-2.9291,1.9867-2.715,3.5508,.2003,1.4632,1.7752,2.2378,3.1601,2.7312,13.216,4.7089,27.7089,5.934,41.656,3.5213,2.3686-.4098,5.1425-1.2889,5.8351-3.599,.4982-1.6617-.3868-3.4707-1.7294-4.5285s-3.0583-1.5127-4.7363-1.877c-7.1538-1.5531-14.5198-1.9026-21.8478-1.9055-6.327-.0025-13.7684-.8631-19.6226,2.1067Z"/>
            <path d="M5.1878,40.1635c-4.6985,2.6125-2.8064,5.5455,1.6304,6.6426,5.4636,1.8489,11.1378,3.0571,16.8628,3.718,6.8772,.7525,13.8375,.6717,20.6882-.2874,3.0853-.5767,7.5434-.6208,8.6308-4.1447,.4779-2.2822-1.3833-4.3354-3.4254-5.1121-9.9211-3.1694-20.5564-2.6496-30.8508-2.9826-4.5792-.0666-9.3523,.099-13.536,2.1662h0Zm0,0c4.1705-2.0985,8.9549-2.2997,13.5372-2.2656,9.223,.1586,18.5354-.1084,27.6157,1.8465,2.241,.4622,4.7427,1.0603,6.1805,3.0229,1.6264,2.0351,.9868,4.9817-1.3493,6.1513-2.1056,1.1719-4.4927,1.2943-6.7553,1.6657-2.2953,.2878-4.5987,.5206-6.91,.6188-9.234,.452-18.5479-.6539-27.413-3.2693-2.1769-.7403-4.5117-1.199-6.4654-2.4458-2.4865-1.7683-.609-4.367,1.5596-5.3244h0Z"/>
          </g>
          <g>
            <path class="q" d="M51.8903,67.0057c.0717-1.1781,.1362-2.3572,.1877-3.5338-17.8704,10.0712-43.4448,2.4394-50.2929,.0896l-.0578,3.3273c6.5892,2.2767,32.1763,10.0276,50.1631,.1168Z"/>
            <path class="p" d="M52.078,63.4719c.0512-1.168,.0891-2.3327,.1112-3.4913-17.7547,10.1696-43.2612,2.6677-50.3462,.2532l-.0579,3.3277c6.8482,2.3497,32.4225,9.9816,50.2929-.0896Z"/>
            <path d="M51.4002,74.1123c.0851-1.1781,.1716-2.3657,.2556-3.5589-18.1,9.7157-43.6658,1.8618-49.9863-.3373l-.0578,3.3265c6.0183,2.1097,31.563,10.082,49.7886,.5697Z"/>
            <path class="d" d="M51.6557,70.5534c.083-1.1788,.1625-2.3624,.2346-3.5477-17.9868,9.9108-43.5739,2.1599-50.1631-.1168l-.0578,3.3273c6.3205,2.199,31.8863,10.0529,49.9863,.3373Z"/>
          </g>
        </g>
        <path class="n" d="M59.0305,41.9765c2.4261,.3568,4.6779-1.539,7.1301-1.5216,.606,.0043,1.2071,.1521,1.7486,.4242,1.4429,.7252,1.2799,1.4077,2.1608,4.3198,.4775,1.5788,.3484,3.5507,.6512,4.9556-1.3062,.2612-2.2878,.7533-3.5941,1.0145,.0393-.8015,.5675-1.4465,1.1923-1.95,.2329-1.7532-.069-5.2158-1.3211-6.4647-.9491-.9466-4.6254,.7258-5.9206,1.071s-.9474-2.6152-2.0472-1.8488Z"/>
        <path class="n" d="M86.2542,41.9765c-2.4261,.3568-4.6779-1.539-7.1301-1.5216-.606,.0043-1.2071,.1521-1.7486,.4242-1.4429,.7252-1.2799,1.4077-2.1608,4.3198-.4775,1.5788-.3484,3.5507-.6512,4.9556,1.3062,.2612,2.2878,.7533,3.5941,1.0145-.0393-.8015-.5675-1.4465-1.1923-1.95-.2329-1.7532,.069-5.2158,1.3211-6.4647,.9491-.9466,4.6254,.7258,5.9206,1.071s.9474-2.6152,2.0472-1.8488Z"/>
        <g>
          <path class="l" d="M40.4074,89.4212s-1.2833-14.371-.0064-17.7671c0,0,6.4031-21.4778,29.5185-23.219,0,0,25.1894-1.9263,30.0844,18.3531"/>
          <path class="j" d="M49.6223,62.6275c-5.6235,6.5067-8.571,14.9202-9.1287,23.359-.5042,7.6285,1.0008,15.6432,5.7797,21.7561,4.8666,6.2251,12.6439,9.8613,20.57,11.4917,11.2342,2.3109,24.1169,.5202,32.0591-7.4521,5.5794-5.6006,8.0453-13.6087,7.8856-21.3579s-2.7337-15.2897-6.1312-22.3203c-2.4604-5.0916-5.6201-10.2368-10.7431-12.9393-3.681-1.9418-7.7041-2.2033-11.8065-2.314-2.9978-.0809-5.9392-1.0821-8.8987-.9996-7.4002,.2061-15.05,5.5279-19.5862,10.7765Z"/>
          <path class="i" d="M51.7102,64.6635c-5.1338,5.94-7.8246,13.6209-8.3338,21.3248-.4603,6.9642,.9137,14.2809,5.2764,19.8615,4.4428,5.683,11.5428,9.0025,18.7787,10.4909,10.2559,2.1096,22.0167,.4749,29.2673-6.8031,5.0936-5.1128,7.3446-12.4236,7.1989-19.498-.1457-7.0744-2.4957-13.9582-5.5972-20.3766-2.2462-4.6482-5.1307-9.3453-9.8076-11.8125-3.3604-1.7727-7.0332-2.0114-10.7783-2.1125-2.7368-.0738-5.422-.9878-8.1238-.9126-6.7557,.1882-13.7394,5.0465-17.8805,9.838Z"/>
        </g>
        <g>
          <path class="j" d="M28.114,47.2591c-.8204,.9232-1.0894,3.9011-.8289,5.1083,.186,.8623,4.3968,3.0933,7.6116,3.7074,9.3684,1.7895,18.2376,1.3372,26.4681-3.4824,.5896-.7123,.8248-3.9366-.0146-5.3112-3.9988,1.8341-8.4963,2.4268-12.8941,2.542-5.7373,.1504-11.4864-.1503-17.1767-.8984-1.1698-.1538-2.3718-.7926-3.1654-1.6657Z"/>
          <path class="l" d="M28.4071,33.1514l-.3326,16.0066c-.0115,.5538,.2826,1.0707,.7668,1.3397,8.9253,4.9587,21.5582,4.471,30.9511,.1994,.8239-.3747,1.3835-1.1596,1.4549-2.0619,.363-4.5862,.9567-9.5661,.5936-14.0907-6.2585,.8189-12.6884,1.2386-18.9961,1.0121-4.6125-.1657-9.9919-1.1654-14.4377-2.4052Z"/>
          <path class="j" d="M41.9518,25.8688c-1.3544,.002-3.1403-.1151-4.4901-.0038-3.6705,.3027-10.0747,1.2452-9.9897,3.4547,.0734,1.9083,.0537,3.2074,.0293,3.905-.0132,.3762,.2006,.7212,.5445,.8744,3.0937,1.3776,18.2329,7.4207,34.4385,1.7603,.4995-.1745,.865-.6057,.9639-1.1255,.2035-1.0695,.3963-3.0895-.2147-5.7625,0,0-.9812-3.1325-21.2816-3.1026Z"/>
          <g>
            <path class="o" d="M30.5233,27.6744c-.9495,.4031-1.9578,1.1114-1.8148,1.9863,.1339,.8185,1.1866,1.2518,2.1122,1.5278,8.8337,2.6342,18.521,3.3195,27.8433,1.9698,1.5832-.2292,3.4373-.721,3.9002-2.0133,.333-.9295-.2586-1.9415-1.1559-2.5333s-2.0442-.8462-3.1658-1.05c-4.7817-.8688-9.7052-1.0643-14.6033-1.0659-4.229-.0014-9.203-.4828-13.1159,1.1785Z"/>
            <path d="M30.5233,27.6744c-.9221,.3759-2.3641,1.3362-1.6007,2.4546,.744,.8898,2.0007,1.0255,3.0485,1.361,3.6443,.9996,7.3848,1.6558,11.1472,1.9947,4.5169,.4007,9.0704,.3443,13.5737-.1821,1.4881-.2114,3.0332-.2934,4.3897-.9092,1.5754-.6208,1.9738-2.2686,.639-3.405-1.1343-.9707-2.7144-1.1866-4.1781-1.4548-5.9698-1.0587-12.0514-.9391-18.0912-1.0694-3.0054-.0257-6.1065,.0515-8.9282,1.2102h0Zm0,0c5.639-2.1175,12.0837-1.0187,18.0067-1.1552,3.0251,.1034,6.0512,.3421,9.0429,.8343,1.4669,.2637,3.0681,.4525,4.2901,1.4761,1.4511,1.2286,1.055,3.0876-.679,3.7848-1.4282,.6358-2.9751,.6966-4.4676,.9013-4.5182,.4974-9.0858,.5231-13.6093,.091-4.5017-.4824-9.0407-1.2453-13.3045-2.7801-2.0597-.9552-.8958-2.5584,.7208-3.1522h0Z"/>
          </g>
          <g>
            <path class="q" d="M61.7398,42.69c.0479-.659,.091-1.3186,.1254-1.9768-11.9448,5.6339-29.039,1.3646-33.6164,.0501l-.0387,1.8613c4.4043,1.2736,21.507,5.6095,33.5296,.0653Z"/>
            <path class="p" d="M61.8653,40.7132c.0342-.6534,.0595-1.3049,.0743-1.953-11.8674,5.6889-28.9163,1.4923-33.652,.1416l-.0387,1.8615c4.5774,1.3145,21.6716,5.5837,33.6164-.0501Z"/>
            <path d="M61.4122,46.6655c.0569-.659,.1147-1.3234,.1708-1.9909-12.0983,5.435-29.1867,1.0415-33.4114-.1887l-.0387,1.8608c4.0227,1.1802,21.0971,5.6399,33.2793,.3187Z"/>
            <path class="d" d="M61.583,44.6746c.0555-.6595,.1086-1.3215,.1568-1.9846-12.0226,5.5442-29.1253,1.2083-33.5296-.0653l-.0387,1.8613c4.2247,1.2301,21.3132,5.6236,33.4114,.1887Z"/>
          </g>
        </g>
        <g>
          <path class="j" d="M117.789,46.1953c.8436,.902,1.1886,3.872,.959,5.0855-.164,.8668-4.3164,3.2045-7.5145,3.9004-9.3197,2.028-18.1975,1.8022-26.5484-2.8058-.6076-.6971-.925-3.9143-.1209-5.3099,4.0443,1.7314,8.5555,2.2091,12.9548,2.2122,5.7393,.0039,11.4788-.4434,17.1481-1.3365,1.1655-.1836,2.3508-.8529,3.1218-1.7459Z"/>
          <path class="m" d="M117.136,32.0997l.741,15.9929c.0256,.5534-.2552,1.0776-.7324,1.3589-8.7958,5.1848-21.4371,5.0197-30.9359,.9892-.8332-.3535-1.4126-1.1239-1.5071-2.0241-.48-4.5755-1.2006-9.5386-.953-14.071,6.2773,.6589,12.7159,.9144,19.0158,.5269,4.6068-.2833,9.9589-1.42,14.3716-2.7729Z"/>
          <path class="j" d="M103.4099,25.1651c1.354-.0326,3.1363-.1952,4.4886-.1184,3.677,.2089,10.1032,.9876,10.0746,3.1987-.0247,1.9095,.0282,3.2078,.0704,3.9045,.0228,.3757-.1821,.7261-.522,.888-3.0575,1.4561-18.0375,7.8836-34.3823,2.6386-.5038-.1617-.8802-.5835-.9924-1.1006-.2307-1.064-.475-3.0784,.0676-5.7661,0,0,.901-3.1565,21.1955-3.6447Z"/>
          <g>
            <path class="o" d="M114.8806,26.6785c.9594,.3788,1.9856,1.061,1.8649,1.9394-.1129,.8217-1.1542,1.2817-2.0725,1.5812-8.7636,2.8588-18.4302,3.7911-27.784,2.6797-1.5885-.1887-3.4546-.633-3.9503-1.9131-.3566-.9207,.2089-1.9475,1.0909-2.5619s2.0219-.8981,3.138-1.1305c4.7579-.9906,9.6749-1.3117,14.5714-1.4383,4.2276-.1093,9.1877-.7175,13.1417,.8434Z"/>
            <path d="M114.8806,26.6785c1.602,.5444,2.8576,2.115,.8009,3.1327-4.2231,1.6432-8.7412,2.5217-13.2291,3.1189-4.511,.5473-9.0778,.6381-13.6073,.2562-1.4973-.1665-3.0452-.1877-4.4893-.7869-1.729-.6448-2.2119-2.4933-.7752-3.7663,1.1954-1.0544,2.7912-1.2841,4.2509-1.5851,5.9611-1.1732,12.0476-1.1683,18.0907-1.4123,3.0064-.0826,6.1151-.063,8.9583,1.0428h0Zm0,0c-5.7-1.9335-12.1056-.6278-18.0227-.5737-3.0166,.2006-6.0274,.5362-8.9914,1.1226-1.4564,.3054-3.0304,.5615-4.1397,1.5609-1.2902,1.1649-.8837,2.8018,.7259,3.3876,1.3717,.581,2.9184,.6235,4.4114,.7968,4.5153,.4113,9.0687,.3515,13.574-.1644,3.7526-.4348,7.4751-1.1861,11.0926-2.2785,1.0401-.3618,2.2914-.5299,3.0128-1.4383,.7339-1.1382-.7336-2.0597-1.6628-2.413h0Z"/>
          </g>
          <g>
            <path class="q" d="M84.0575,42.4859c-.0647-.6576-.1246-1.3159-.1758-1.973,12.0847,5.3272,29.0644,.6231,33.6067-.8078l.0861,1.8597c-4.3704,1.3856-21.3568,6.1566-33.517,.921Z"/>
            <path class="p" d="M83.8817,40.5129c-.0509-.6523-.0928-1.303-.1241-1.9505,12.0088,5.3842,28.945,.7539,33.6446-.7172l.0862,1.8599c-4.5423,1.4308-21.522,6.135-33.6067,.8078Z"/>
            <path d="M84.4865,46.4517c-.0737-.6574-.1484-1.32-.2216-1.9859,12.233,5.1245,29.2038,.2963,33.3957-1.0413l.0861,1.8593c-3.9912,1.2824-20.9463,6.1765-33.2603,1.1679Z"/>
            <path class="d" d="M84.2649,44.4658c-.0723-.6578-.1423-1.3183-.2074-1.98,12.1601,5.2355,29.1466,.4646,33.517-.921l.0861,1.8597c-4.1919,1.3376-21.1627,6.1657-33.3957,1.0413Z"/>
          </g>
        </g>
      </g>
    </g>
  </g>
</svg>