<?xml version="1.0" encoding="UTF-8"?>
<svg xmlns="http://www.w3.org/2000/svg" xmlns:xlink="http://www.w3.org/1999/xlink" viewBox="0 0 156.305 129.0516">
  <defs>
    <style>
      .f {
        fill: #d42008;
      }

      .g {
        fill: #fb3;
        stroke-width: .3318px;
      }

      .g, .h, .i, .j, .k {
        stroke-miterlimit: 10;
      }

      .g, .h, .j {
        stroke: #000;
      }

      .h {
        fill: #c69c6d;
      }

      .h, .i, .j {
        stroke-width: .2008px;
      }

      .i {
        stroke: #c69c6d;
      }

      .i, .l, .k {
        fill: none;
      }

      .m {
        fill: #00792d;
      }

      .n {
        fill: #333;
      }

      .o {
        clip-path: url(#e);
      }

      .j {
        fill: #754c24;
      }

      .p {
        clip-path: url(#d);
      }

      .q {
        fill: #f2d709;
      }

      .k {
        stroke: #1a1a1a;
        stroke-width: .1506px;
      }
    </style>
    <clipPath id="d">
      <path class="l" d="M124.1847,22.1709l-58.6063,42.6362,6.7705,6.5895,56.1029-43.5008c-.8496-1.4374-2.4047-3.8488-4.2671-5.725Z"/>
    </clipPath>
    <clipPath id="e">
      <path class="l" d="M79.2517,56.4038c1.0825-2.9063-2.531-10.3112-9.3812-11.9573-9.9116-2.3817-15.2135,5.2316-16.6765,8.2079-2.4477,4.9795-4.3806,7.828-6.8437,8.823-3.4555,1.3958-6.6746,.1576-12.913,.1762-16.9442,.0504-26.9161,11.5688-31.212,21.8466-4.3812,10.4817-1.2155,18.8317,4.2822,27.6517,3.9681,6.3661,11.0294,13.3626,16.0298,15.3286,9.492,3.7319,20.8361,3.0116,26.903-1.4005,10.8285-7.8749,16.0501-13.3365,18.0981-24.3128,2.1443-11.4924-.2894-15.8815,12.8232-18.5916,3.1477-.6506,6.1093-3.0502,6.2785-6.1029,.1674-3.0203-3.6848-4.6966-7.2563-5.9361-3.1907-1.1073-1.9297-3.6812-2.0181-7.0574"/>
    </clipPath>
  </defs>
  <g id="a" data-name="Capa 1"/>
  <g id="b" data-name="Capa 2">
    <g id="c" data-name="Instruments Group">
      <g>
        <path class="g" d="M79.2517,56.4038c1.0825-2.9063-2.531-10.3112-9.3812-11.9573-9.9116-2.3817-15.2135,5.2316-16.6765,8.2079-2.4477,4.9795-4.3806,7.828-6.8437,8.823-3.4555,1.3958-6.6746,.1576-12.913,.1762-16.9442,.0504-26.9161,11.5688-31.212,21.8466-4.3812,10.4817-1.2155,18.8317,4.2822,27.6517,3.9681,6.3661,11.0294,13.3626,16.0298,15.3286,9.492,3.7319,20.8361,3.0116,26.903-1.4005,10.8285-7.8749,16.0501-13.3365,18.0981-24.3128,2.1443-11.4924-.2894-15.8815,12.8232-18.5916,3.1477-.6506,6.1093-3.0502,6.2785-6.1029,.1674-3.0203-3.6848-4.6966-7.2563-5.9361-3.1907-1.1073-1.9297-3.6812-2.0181-7.0574"/>
        <rect class="n" x="30.0591" y="90.845" width="13.0219" height="1.5531" rx=".7765" ry=".7765" transform="translate(86.081 6.2954) rotate(51.8837)"/>
        <g>
          <path class="h" d="M125.2739,21.3786l-1.0891,.7924c1.8624,1.8762,3.4175,4.2876,4.2671,5.725l1.0442-.8263,.0145,.0056c-.8435-1.4277-2.3866-3.8227-4.2366-5.6967Z"/>
          <path class="j" d="M124.1847,22.1709l-58.6063,42.6362,6.7705,6.5895,56.1029-43.5008c-.8496-1.4374-2.4047-3.8488-4.2671-5.725Z"/>
          <path class="j" d="M139.7098,24.8654c2.5489-6.6211,9.6518-10.9792,16.4741-12.9266-1.1632-4.6263-5.2083-9.8554-9.7759-11.2313-3.7447,6.1074-9.4213,10.7682-16.5246,11.699-1.5908,.1806-3.0009,1.574-3.5304,2.2196-1.3637,1.6628-1.2087,4.5853-1.0479,6.7298l-.0312,.0227c1.8499,1.8741,3.3931,4.269,4.2366,5.6967,2.0254,.7886,4.4393,1.7388,6.5059,1.0719,1.2312-.3974,3.0872-1.707,3.6934-3.2818Z"/>
          <g class="p">
            <g>
              <path class="i" d="M66.9462,60.8029c1.8413,4.5012,5.1582,8.3846,9.316,10.9072"/>
              <path class="i" d="M74.911,55.2647c1.77,4.2962,4.97,7.9342,8.8517,10.4535"/>
              <path class="i" d="M82.8758,49.7265c1.6988,4.0911,4.7817,7.4837,8.3874,9.9999"/>
              <path class="i" d="M90.8405,44.1883c1.6275,3.8861,4.5935,7.0333,7.9231,9.5462"/>
              <path class="i" d="M98.8053,38.6501c1.5562,3.6811,4.4052,6.5829,7.4588,9.0926"/>
              <path class="i" d="M106.77,33.1119c1.4849,3.4761,4.217,6.1325,6.9945,8.6389"/>
              <path class="i" d="M114.7348,27.5737c1.4136,3.2711,4.0287,5.6821,6.5302,8.1853"/>
              <path class="i" d="M122.6995,22.0355c1.3424,3.0661,3.8405,5.2317,6.0659,7.7317"/>
            </g>
          </g>
        </g>
        <path class="j" d="M62.1489,62.3031c-4.405,.7551-7.9775,4.905-8.0693,9.3732s3.3073,8.7613,7.6775,9.6967,9.2288-1.5901,10.974-5.7045c2.9036-6.845-3.2281-14.6262-10.5823-13.3655Z"/>
        <path class="n" d="M62.3803,63.677c-3.7741,.647-6.8349,4.2024-6.9135,8.0307s2.8336,7.5064,6.5779,8.3079,7.9069-1.3624,9.4022-4.8874c2.4877-5.8646-2.7657-12.5313-9.0666-11.4512Z"/>
        <polyline class="k" points="35.0877 88.3255 125.8145 22.1217 137.1977 13.8685"/>
        <polyline class="k" points="36.0517 89.5542 126.5351 22.8632 142.6076 10.6603"/>
        <polyline class="k" points="36.9135 90.6527 127.1643 23.9363 147.9106 7.2598"/>
        <polyline class="k" points="37.7443 92.0087 127.9058 24.7625 149.3957 9.1526"/>
        <polyline class="k" points="38.7504 92.994 128.7025 25.5064 144.8308 13.4941"/>
        <polyline class="k" points="39.6122 94.0925 129.0886 26.4067 140.4274 17.985"/>
        <g>
          <rect class="n" x="142.7736" y="4.0967" width="5.6181" height=".5044" transform="translate(59.1419 -112.874) rotate(51.8837)"/>
          <path class="n" d="M144.0957,2.4427c-.115,.4892-.5246,.8302-1.0252,.875-.251,.0225-.8208-.0545-.9667-.5144-.152-.479,.2897-1.0455,.7821-.945-.4315-.0927-.759-.9255-.6017-1.3378s.6845-.6286,1.095-.4664,.6479,.6575,.5401,1.0855c.127-.5245,.8946-.6485,1.2207-.3753,.3418,.2863,.3668,.5288,.2366,.9106-.1534,.4497-.6573,.9359-1.2809,.7678Z"/>
          <rect class="n" x="138.793" y="8.0198" width="3.8814" height=".5044" transform="translate(60.3725 -107.5576) rotate(51.8837)"/>
          <path class="n" d="M139.7827,7.049c-.115,.4892-.5246,.8302-1.0252,.875-.251,.0225-.8208-.0545-.9667-.5144-.152-.479,.2897-1.0455,.7821-.945-.4315-.0927-.759-.9255-.6017-1.3378s.6845-.6286,1.095-.4664,.6479,.6575,.5401,1.0855c.127-.5245,.8946-.6485,1.2207-.3753,.3418,.2863,.3668,.5288,.2366,.9106-.1534,.4497-.6573,.9359-1.2809,.7678Z"/>
          <rect class="n" x="133.209" y="11.5398" width="4.7191" height=".5044" transform="translate(61.165 -102.1466) rotate(51.8837)"/>
          <path class="n" d="M134.359,10.2394c-.115,.4892-.5246,.8302-1.0252,.875-.251,.0225-.8208-.0545-.9667-.5144-.152-.479,.2897-1.0455,.7821-.945-.4315-.0927-.759-.9255-.6017-1.3378s.6845-.6286,1.095-.4664,.6479,.6575,.5401,1.0855c.127-.5245,.8946-.6485,1.2207-.3753,.3418,.2863,.3668,.5288,.2366,.9106-.1534,.4497-.6573,.9359-1.2809,.7678Z"/>
        </g>
        <g>
          <rect class="n" x="148.6046" y="11.721" width="5.9196" height=".5044" transform="translate(235.6989 138.6085) rotate(-128.1163)"/>
          <path class="n" d="M153.155,13.9898c-.5025-.0047-.9312,.312-1.0939,.7875-.0816,.2384-.1424,.8102,.2695,1.0614,.4291,.2616,1.0844-.0326,1.104-.5348-.0127,.4412,.7183,.9575,1.1562,.9028s.7734-.5153,.7136-.9526-.4844-.7857-.9258-.7829c.5397,.0015,.8427-.7145,.655-1.0963-.1968-.4001-.4263-.4821-.8281-.4465-.4733,.042-1.0655,.4157-1.0506,1.0614Z"/>
          <rect class="n" x="144.5413" y="15.5129" width="4.1425" height=".5044" transform="translate(224.7072 140.845) rotate(-128.1163)"/>
          <path class="n" d="M147.6547,17.0825c-.5025-.0047-.9312,.312-1.0939,.7875-.0816,.2384-.1424,.8102,.2695,1.0614,.4291,.2616,1.0844-.0326,1.104-.5348-.0127,.4412,.7183,.9575,1.1562,.9028s.7734-.5153,.7136-.9526-.4844-.7857-.9258-.7829c.5397,.0015,.8427-.7145,.655-1.0963-.1968-.4001-.4263-.4821-.8281-.4465-.4733,.042-1.0655,.4157-1.0506,1.0614Z"/>
          <rect class="n" x="140.0438" y="19.7506" width="3.9334" height=".5044" transform="translate(213.9304 144.0777) rotate(-128.1163)"/>
          <path class="n" d="M142.988,21.2379c-.5025-.0047-.9312,.312-1.0939,.7875-.0816,.2384-.1424,.8102,.2695,1.0614,.4291,.2616,1.0844-.0326,1.104-.5348-.0127,.4412,.7183,.9575,1.1562,.9028s.7734-.5153,.7136-.9526-.4844-.7857-.9258-.7829c.5397,.0015,.8427-.7145,.655-1.0963-.1968-.4001-.4263-.4821-.8281-.4465-.4733,.042-1.0655,.4157-1.0506,1.0614Z"/>
        </g>
        <circle class="n" cx="136.8286" cy="13.398" r=".5979"/>
        <circle class="n" cx="142.2385" cy="10.1899" r=".5979"/>
        <circle class="n" cx="147.5415" cy="6.7893" r=".5979"/>
        <circle class="n" cx="140.7965" cy="18.4555" r=".5979"/>
        <circle class="n" cx="145.1999" cy="13.9645" r=".5979"/>
        <circle class="n" cx="149.7648" cy="9.6231" r=".5979"/>
        <g class="o">
          <g>
            <rect x="-9.3279" y="90.1733" width="71.1598" height="3.6404" transform="translate(121.8752 89.1329) rotate(104.2136)"/>
            <rect class="f" x="-12.8569" y="89.2794" width="71.1598" height="3.6404" transform="translate(116.6133 91.4405) rotate(104.2136)"/>
            <rect class="q" x="-16.3858" y="88.3856" width="71.1598" height="3.6404" transform="translate(111.3513 93.7481) rotate(104.2136)"/>
            <rect class="m" x="-19.9148" y="87.4917" width="71.1598" height="3.6404" transform="translate(106.0894 96.0557) rotate(104.2136)"/>
          </g>
        </g>
      </g>
    </g>
  </g>
</svg>