<?xml version="1.0" encoding="UTF-8"?>
<svg xmlns="http://www.w3.org/2000/svg" viewBox="0 0 179.9199 104.2527">
  <defs>
    <style>
      .d {
        fill: #d42008;
      }

      .e, .f {
        fill: #fb3;
      }

      .e, .g {
        stroke: #000;
        stroke-miterlimit: 10;
        stroke-width: .3318px;
      }

      .h {
        fill: #00792d;
      }

      .i {
        fill: #b57b2a;
      }

      .j {
        fill: none;
      }

      .k {
        fill: #ffda99;
      }

      .l {
        fill: #f2d709;
      }

      .g {
        fill: #754c24;
      }
    </style>
  </defs>
  <g id="a" data-name="Capa 1"/>
  <g id="b" data-name="Capa 2">
    <g id="c" data-name="Instruments Group">
      <g>
        <path class="e" d="M133.1822,73.5365c-2.1466-2.3158-4.1152-5.3157-6.4271-7.4666l-21.4844-19.9882c.7778-1.569,1.4959-2.61,2.9996-3.5075,6.3,7.8443,13.2121,15.1968,20.6529,21.9685,2.3595,2.1473,5.1354,4.1397,7.8842,5.7592-1.1951,1.1833-2.4301,2.0512-3.6252,3.2346Z"/>
        <path class="e" d="M132.0452,59.6698c-11.5122-11.4076-23.3072-22.5298-35.3705-33.353,1.0904-1.2724,2.4311-2.0524,4.0245-2.5709l32.2787,33.616c2.3941,2.4933,5.9281,4.3257,8.7216,6.3617-.9136,.8714-1.6765,2.1862-2.5901,3.0576-2.2014-2.2604-4.823-4.8905-7.0643-7.1114Z"/>
        <path class="e" d="M121.2806,72.4568l-34.8375-33.1863c-.3467-.9819-1.0133-2.3718-.4854-3.2694s2.3022-.5643,2.937,.2612c10.2122,9.643,24.3531,23.816,33.728,34.0164,1.9707,2.1442,4.6548,3.5776,7.0388,5.2504-.9239,.9344-1.9493,2.0879-2.8733,3.0223-1.892-1.6325-3.6983-4.3709-5.5077-6.0945Z"/>
        <path class="e" d="M138.2333,46.4785c3.0098-3.7715,5.9788-8.6277,4.3401-12.9055-1.0719-2.798-3.894-4.4782-6.7754-5.3305-6.4536-1.9091-13.9576-.2764-19.5773,3.9392-2.784,2.0884-4.7468,4.3084-7.7287,6.9045-3.6604,3.1866-6.762,6.581-10.1454,10.0644-3.3395,3.4382-6.5194,7.1385-8.5726,11.4325-2.0531,4.2939-2.8852,9.2817-1.4058,13.5895,1.4794,4.3078,5.5785,7.6894,10.2231,7.5249,4.8374-.1714,8.9714-3.8151,12.6055-7.2368,9.4517-8.899,18.9438-17.8414,27.0365-27.9821Zm-9.3249,4.8312c-6.9636,6.6354-13.9271,13.2709-20.8908,19.9063-1.8367,1.7502-3.7214,3.5338-5.9987,4.6057s-5.0626,1.3138-7.0456-.0153c-2.5938-1.7385-2.9812-5.4849-2.3085-8.6708,.9695-4.5924,3.5841-8.7592,6.4367-12.5922,6.149-8.2621,13.8213-16.0099,22.448-21.6726,3.4651-2.2746,5.8411-3.126,9.4995-2.7613,3.3705,.3361,4.3828,.5608,7.0848,3.4817,1.3414,1.45,1.913,5.1832,.1962,7.9043-2.4661,3.9085-6.066,6.6167-9.4215,9.8141Z"/>
        <path class="e" d="M115.7557,67.2964c-5.609-.4567-9.3911-6.6499-9.0151-12.2649,.376-5.615,3.8029-10.55,7.5629-14.7371,1.0712-1.1929,2.2125-2.4074,2.6944-3.9366s.0688-3.4785-1.3591-4.2076c-1.2811-.6541-2.832-.1271-4.1273,.4982-3.61,1.7427-6.8987,4.2287-10.7562,5.3187s-8.7071,.2878-10.6737-3.2052c-.6889-1.3661-1.6599-2.9786-.7824-4.2319s3.4384-3.5403,4.5962-1.0706c.6416,2.7323,3.9178,4.1375,6.6934,3.7208s5.1495-2.1419,7.4346-3.7716,4.7504-3.2695,7.5499-3.4697c3.6936-.2641,7.3833,2.4047,8.2888,5.9953,.7849,3.1124-.3829,6.4223-2.1537,9.0995s-4.1216,4.9159-6.0891,7.452-3.595,5.5477-3.5286,8.7569,2.3127,6.5288,5.5018,6.8929c.5953,.4428,.81,1.3755,.5514,2.0709s-1.6487,1.15-2.3881,1.0898Z"/>
        <g>
          <g>
            <path class="g" d="M175.6488,24.1544c.5622-1.1946,1.1522-2.2691,2.093-3.1953,.4058-.0498,.6319-.0417,.9426-.0691,.2867-.9325,.7524-1.9185,1.0391-2.8511-2.2385-1.365-4.9056-2.5919-7.5011-2.9622-.4337,.3686-1.0015,2.3062-.915,2.8688,.2884,.2391,.4163,.4374,.6658,.6643-.4109,1.5321-.7551,2.4932-1.0841,3.3214"/>
            <path class="e" d="M157.7087,59.1573c6.0145-9.9047,13.2983-24.1293,17.9401-35.0028l-4.7597-2.2231c-4.739,9.538-10.0171,18.8525-16.821,27.0456,1.6864,3.0173,2.9024,6.8035,3.6407,10.1803Z"/>
          </g>
          <path class="j" d="M76.118,62.1134c.1697,.2242,.3397,.4482,.5109,.6714l-.001-.005c-.1702-.222-.3411-.4434-.5099-.6664Z"/>
          <path class="j" d="M86.1265,73.7459c-.4108-.4159-.819-.835-1.2235-1.2586,.4045,.4236,.8127,.8428,1.2235,1.2586Z"/>
          <path class="j" d="M84.2702,71.8161c.1502,.16,.3005,.3199,.4516,.4789-.1518-.1597-.3014-.3221-.4523-.483l.0007,.0041Z"/>
          <path class="j" d="M97.922,83.8185c4.8497,3.406,13.0075,4.9889,18.9337,4.9988,4.1844,.007,8.3085-1.1969,12.0695-3.0309,10.2525-4.9996,17.9855-15.0116,19.9254-26.252,1.94-11.2404-2.0877-23.4049-10.5609-31.0414-8.4732-7.6364-21.1698-10.3643-31.9359-6.5957-7.8888,2.7614-14.4876,8.7557-18.4956,16.0901-4.0081,7.3344-5.4954,15.9254-4.7616,24.2512,.27,3.0631,.5935,6.1937,1.1205,9.2714l2.0036,2.3307c3.6571,3.6929,7.5599,7.0695,11.7012,9.9781Z"/>
          <path class="f" d="M78.5529,65.2316c.2972,.3686,.5963,.7355,.8976,1.1007-.3013-.3651-.6004-.7321-.8976-1.1007Z"/>
          <path class="f" d="M79.7952,66.7483c.3061,.3676,.6143,.7333,.9246,1.097-.3103-.3637-.6185-.7293-.9246-1.097Z"/>
          <path class="f" d="M80.9547,68.1219c.3834,.4466,.7701,.8898,1.1598,1.33-.3897-.4402-.7764-.8835-1.1598-1.33Z"/>
          <path class="f" d="M76.6279,62.7798l.001,.005c.1084,.1414,.2176,.2822,.3267,.4232-.11-.1423-.2183-.2856-.3277-.4282Z"/>
          <path class="f" d="M77.2203,63.551c.3619,.4647,.7268,.9272,1.0951,1.387-.3682-.4598-.7332-.9223-1.0951-1.387Z"/>
          <path class="e" d="M158.4293,66.8124c1.9392-10.0507-.1573-21.7573-5.2357-30.6448-5.0783-8.8876-13.3156-15.9268-22.8861-19.5575-13.142-4.9856-29.2627-2.6525-40.1419,6.2476-10.8791,8.9001-16.4219,23.8783-13.957,37.7164,.126,.7076,.2582,1.3976,.3937,2.0776l7.6149,8.8581c-.527-3.0777-.8505-6.2083-1.1205-9.2714-.7338-8.3258,.7535-16.9168,4.7616-24.2512,4.008-7.3344,10.6069-13.3287,18.4956-16.0901,10.7661-3.7686,23.4627-1.0407,31.9359,6.5957,8.4732,7.6365,12.5009,19.801,10.5609,31.0414-1.9399,11.2404-9.6729,21.2525-19.9254,26.252-3.761,1.834-7.8851,3.0379-12.0695,3.0309-5.9262-.0098-14.0841-1.5928-18.9337-4.9988-4.1414-2.9085-8.0442-6.2851-11.7012-9.9781l.0182,.0212c-.0378-.0382-.0747-.0775-.1125-.1158-.4108-.4159-.819-.835-1.2235-1.2586-.0608-.0637-.1206-.1284-.1812-.1922-.1511-.159-.2264-.3953-.3765-.5554-1.324-1.7849-6.7524-8.1154-7.7163-8.9549-.1711-.2232-.3412-.4472-.5109-.6714-.0577-.0762-.1168-.1515-.1743-.2278l.0201,.0234c-3.0703-4.0732-5.899-8.3055-8.474-12.5616C58.3905,34.3075,54.5693,17.6737,52.5634,.2102,27.5215,6.9423,2.6184,27.2414,.1811,54.4175c19.4379,.4586,38.709,6.5793,54.8492,17.4206,12.7324,8.5523,23.5371,21.1651,37.5986,27.2912,14.0614,6.1261,31.1776,7.3271,44.2398-.7123,11.0936-6.8277,19.0928-18.8141,21.5606-31.6046Z"/>
          <path class="f" d="M83.6853,71.1881c.1941,.2102,.3892,.4194,.5849,.628l-.0007-.0041c-.1949-.2077-.3908-.4144-.5841-.6238Z"/>
          <path class="f" d="M82.4078,69.78c.3031,.3398,.6081,.6776,.9151,1.0132-.307-.3357-.6119-.6735-.9151-1.0132Z"/>
          <path class="f" d="M76.6279,62.7798l-.0256-.1281-.6385-.7427c.0514,.0682,.1027,.1363,.1542,.2044,.1688,.223,.3397,.4444,.5099,.6664Z"/>
          <path class="f" d="M76.9556,63.208c.0883,.1142,.1759,.2289,.2647,.343,.3619,.4647,.7268,.9272,1.0951,1.387,.0788,.0983,.1586,.1956,.2375,.2936,.2972,.3686,.5963,.7356,.8976,1.1007,.1146,.1389,.2295,.2775,.3447,.416,.3061,.3676,.6143,.7333,.9246,1.097,.0785,.0921,.1562,.1849,.2349,.2766,.3834,.4466,.7701,.8898,1.1598,1.33,.0973,.1099,.1956,.2186,.2933,.3281,.3032,.3398,.6081,.6776,.9151,1.0132,.1206,.1319,.2413,.2637,.3624,.3949,.1934,.2095,.3893,.4161,.5841,.6238-.0177-.1006-.035-.2015-.0523-.3022l-7.6149-8.8581,.0256,.1281c.1094,.1426,.2177,.286,.3277,.4282Z"/>
          <path class="f" d="M86.239,73.8617l-.0182-.0212c-.0314-.0316-.063-.0629-.0943-.0945,.0377,.0382,.0747,.0776,.1125,.1158Z"/>
          <path class="f" d="M76.118,62.1134c-.0515-.0681-.1028-.1362-.1542-.2044l-.0201-.0234c.0575,.0763,.1166,.1516,.1743,.2278Z"/>
          <path class="f" d="M84.903,72.4873c-.0608-.0637-.1206-.1284-.1812-.1922,.0606,.0638,.1204,.1286,.1812,.1922Z"/>
          <path class="f" d="M76.9556,63.208c.0883,.1142,.1759,.2289,.2647,.343-.0888-.114-.1764-.2287-.2647-.343Z"/>
          <path class="f" d="M83.3229,70.7932c.1206,.1319,.2412,.2637,.3624,.3949-.1212-.1312-.2418-.263-.3624-.3949Z"/>
          <path class="f" d="M82.1145,69.4519c.0973,.1098,.1956,.2186,.2933,.3281-.0977-.1094-.196-.2182-.2933-.3281Z"/>
          <path class="f" d="M80.7198,67.8453c.0785,.0921,.1562,.1849,.2349,.2766-.0787-.0918-.1564-.1846-.2349-.2766Z"/>
          <path class="f" d="M79.4505,66.3323c.1146,.1389,.2295,.2775,.3447,.416-.1152-.1384-.2301-.2771-.3447-.416Z"/>
          <path class="f" d="M78.3154,64.938c.0787,.0983,.1585,.1956,.2375,.2936-.0789-.098-.1588-.1953-.2375-.2936Z"/>
        </g>
        <path class="k" d="M101.7712,87.3569c-7.6794-3.6389-13.899-9.6628-20.215-15.2129C62.1151,55.3756,51.8746,29.9683,48.9972,4.8669l.5728,.4475c-4.9086,.8776-9.5521,3.0706-13.8614,5.5587l-.0896-.1396c4.2161-2.8672,8.7785-5.329,13.8093-6.4184l.4904-.0949,.0825,.5427c3.4602,20.5041,10.3096,41.2326,23.5011,57.5937,5.4005,6.4028,11.7942,12.0256,18.0341,17.6182,3.2116,2.7055,6.5079,5.3937,10.3017,7.2301l-.0668,.1518h0Z"/>
        <path class="i" d="M62.4557,75.1463C45.4304,61.9584,24.6375,53.2763,3.0829,51.9697l-.5876-.0248,.0319-.5231c.2973-3.5274,1.7816-6.7154,3.5497-9.7033,.5927-.9747,1.2357-1.9146,1.9149-2.8248l.1103,.0739c-1.6899,2.9055-3.1777,5.9722-3.985,9.2408-.2456,1.0656-.4722,2.1953-.4922,3.2114l-.5555-.5477c5.5189-.0028,10.925,.8452,16.2232,2.1533,15.6719,4.0245,31.1098,11.6612,43.1631,22.1209h0Z"/>
        <g>
          <path class="e" d="M77.2983,63.4614l6.3747,7.4153c-1.6226-2.0239-4.863-5.8019-6.3747-7.4153Z"/>
          <path d="M139.0446,78.4229c-.5382,.5528-1.0955,1.0862-1.6667,1.6047l11.1493,7.9904c.4748-.5919,.9366-1.1936,1.3839-1.8074l-10.8664-7.7878Z"/>
          <path class="d" d="M139.0446,78.4229l10.8664,7.7878c.4467-.6131,.8808-1.2349,1.2991-1.8682l-10.6148-7.6074c-.4987,.579-1.0176,1.1402-1.5508,1.6878Z"/>
          <path class="l" d="M151.2102,84.3424c.4188-.6341,.8253-1.276,1.2146-1.9287l-10.3939-7.4491c-.46,.6047-.9395,1.1945-1.4356,1.7704l10.6148,7.6074Z"/>
          <path class="h" d="M142.031,74.9646l10.3939,7.4491c.3909-.6552,.7693-1.3175,1.1296-1.9897l-10.2044-7.3132c-.4216,.6304-.8596,1.2499-1.3191,1.8539Z"/>
        </g>
      </g>
    </g>
  </g>
</svg>