<?xml version="1.0" encoding="UTF-8"?>
<svg xmlns="http://www.w3.org/2000/svg" viewBox="0 0 114.9623 130.8063">
  <defs>
    <style>
      .d {
        fill: #f2f2f2;
      }

      .d, .e, .f, .g, .h, .i, .j, .k, .l, .m {
        stroke: #000;
      }

      .d, .e, .f, .h, .i, .j, .m {
        stroke-miterlimit: 10;
      }

      .d, .e, .h, .i, .j, .m {
        stroke-width: .2015px;
      }

      .e {
        fill: #333;
      }

      .f {
        fill: #232323;
      }

      .f, .g, .k, .l {
        stroke-width: .1677px;
      }

      .g {
        fill: #5a5a5a;
      }

      .g, .k, .l {
        stroke-linejoin: round;
      }

      .h {
        fill: #4d4d4d;
      }

      .i {
        fill: none;
      }

      .j {
        fill: #005c23;
      }

      .k {
        fill: #999;
      }

      .l {
        fill: #282828;
      }

      .m {
        fill: #00792d;
      }
    </style>
  </defs>
  <g id="a" data-name="Capa 1"/>
  <g id="b" data-name="Capa 2">
    <g id="c" data-name="Instruments Group">
      <g>
        <path class="m" d="M33.9693,2.3929c-2.78,8.5563-5.5317,18.2058-7.5723,26.9679,22.5454,24.9218,49.1466,49.5425,74.2452,74.7678,.9696,.9745,2.513,1.0659,3.592,.2142,1.481-1.1691,3.0299-2.4954,4.3984-3.4036,4.5948-8.9977,5.4573-18.4275,6.2252-27.8163C89.2612,50.1623,63.7005,25.4641,40.4708,.1115c-2.0574,.4785-4.444,1.8029-6.5014,2.2814Z"/>
        <path class="j" d="M33.5363,28.0274l5.0586,4.9114-1.3918,.4737L103.2763,97.8883l1.0272-1.1524,4.3292,4.2033c-1.3685,.9082-2.9174,2.2345-4.3984,3.4036-1.079,.8517-2.6224,.7603-3.5919-.2142C75.5436,78.9033,48.9424,54.2826,26.397,29.3608l7.1393-1.3334Z"/>
        <polygon class="d" points="38.8296 32.0369 44.9398 8.5582 106.7589 70.0117 104.577 93.7582 102.5736 94.568 38.8296 32.0369"/>
        <polygon class="i" points="38.8296 32.0369 102.5736 94.568 104.577 93.7582 40.5111 30.7808 38.8296 32.0369"/>
        <polyline class="i" points="99.1155 91.1756 100.9191 90.1625 103.3287 66.6018"/>
        <polyline class="i" points="95.1452 87.2809 96.8198 86.1328 99.7197 63.0141"/>
        <polyline class="i" points="90.9018 83.1182 92.5125 81.8987 95.8469 59.1642"/>
        <polyline class="i" points="86.938 79.2298 88.6826 78.1339 91.4167 54.7603"/>
        <polyline class="i" points="83.2376 75.5998 84.9892 74.5032 87.2763 50.6443"/>
        <polyline class="i" points="79.2673 71.7051 81.1255 70.9206 83.6542 47.0437"/>
        <polyline class="i" points="75.645 68.1517 76.9913 66.6412 79.9905 43.4016"/>
        <polyline class="i" points="71.8861 64.4643 73.5679 63.276 75.7108 39.1472"/>
        <polyline class="i" points="68.1108 60.7609 69.8063 59.5783 71.7664 35.2262"/>
        <polyline class="i" points="63.8024 56.5345 65.6354 55.4782 68.2968 31.7771"/>
        <polyline class="i" points="59.9944 52.7989 61.6109 51.5221 64.6952 28.1968"/>
        <polyline class="i" points="56.0049 48.8853 57.7711 47.7475 60.5437 24.0698"/>
        <polyline class="i" points="52.0281 44.9842 53.883 43.9255 57.7553 21.2979"/>
        <polyline class="i" points="47.9278 40.9619 49.6406 39.7552 53.4798 17.0477"/>
        <polyline class="i" points="43.4697 36.5887 45.1969 35.387 49.2042 12.7975"/>
        <line class="i" x1="40.5111" y1="30.7808" x2="45.3145" y2="8.9307"/>
        <polygon class="i" points="37.2031 33.4125 38.5949 32.9388 44.9398 8.5582 106.7589 70.0117 104.3035 96.7359 103.2763 97.8883 37.2031 33.4125"/>
        <line class="i" x1="40.4708" y1=".1115" x2="33.5363" y2="28.0274"/>
        <polygon class="h" points="49.5828 29.1307 51.823 31.4747 53.2451 30.8507 54.7307 18.2912 51.7641 15.3422 49.5828 29.1307"/>
        <line class="i" x1="50.8248" y1="28.277" x2="52.38" y2="15.9544"/>
        <polygon class="e" points="49.5828 29.1307 50.8248 28.277 53.2451 30.8507 51.823 31.4747 49.5828 29.1307"/>
        <polygon class="h" points="54.0216 33.5416 56.2618 35.8856 57.684 35.2617 59.1696 22.7022 56.203 19.7531 54.0216 33.5416"/>
        <line class="i" x1="55.2636" y1="32.6879" x2="56.8189" y2="20.3654"/>
        <polygon class="e" points="54.0216 33.5416 55.2636 32.6879 57.684 35.2617 56.2618 35.8856 54.0216 33.5416"/>
        <polygon class="h" points="60.9883 40.5212 63.2285 42.8652 64.6506 42.2412 66.1362 29.6818 63.1697 26.7327 60.9883 40.5212"/>
        <line class="i" x1="62.2303" y1="39.6675" x2="63.7855" y2="27.345"/>
        <polygon class="e" points="60.9883 40.5212 62.2303 39.6675 64.6506 42.2412 63.2285 42.8652 60.9883 40.5212"/>
        <polygon class="h" points="65.0933 44.5009 67.3335 46.8449 68.7556 46.221 70.2412 33.6615 67.2746 30.7125 65.0933 44.5009"/>
        <line class="i" x1="66.3353" y1="43.6472" x2="67.8905" y2="31.3247"/>
        <polygon class="e" points="65.0933 44.5009 66.3353 43.6472 68.7556 46.221 67.3335 46.8449 65.0933 44.5009"/>
        <polygon class="h" points="68.963 48.4602 71.2033 50.8042 72.6254 50.1803 74.111 37.6208 71.1444 34.6717 68.963 48.4602"/>
        <line class="i" x1="70.205" y1="47.6065" x2="71.7603" y2="35.284"/>
        <polygon class="e" points="68.963 48.4602 70.205 47.6065 72.6254 50.1803 71.2033 50.8042 68.963 48.4602"/>
        <polygon class="h" points="76.4265 55.8505 78.6667 58.1945 80.0888 57.5706 81.5744 45.0111 78.6078 42.062 76.4265 55.8505"/>
        <line class="i" x1="77.6685" y1="54.9968" x2="79.2237" y2="42.6743"/>
        <polygon class="e" points="76.4265 55.8505 77.6685 54.9968 80.0888 57.5706 78.6667 58.1945 76.4265 55.8505"/>
        <polygon class="h" points="80.5315 59.8302 82.7717 62.1743 84.1938 61.5503 85.6794 48.9908 82.7128 46.0418 80.5315 59.8302"/>
        <line class="i" x1="81.7735" y1="58.9765" x2="83.3287" y2="46.654"/>
        <polygon class="e" points="80.5315 59.8302 81.7735 58.9765 84.1938 61.5503 82.7717 62.1743 80.5315 59.8302"/>
        <polygon class="h" points="87.9359 67.3905 90.1762 69.7345 91.5983 69.1105 93.0839 56.551 90.1173 53.602 87.9359 67.3905"/>
        <line class="i" x1="89.1779" y1="66.5368" x2="90.7332" y2="54.2142"/>
        <polygon class="e" points="87.9359 67.3905 89.1779 66.5368 91.5983 69.1105 90.1762 69.7345 87.9359 67.3905"/>
        <polygon class="h" points="92.0728 71.3345 94.313 73.6785 95.7351 73.0545 97.2207 60.495 94.2541 57.546 92.0728 71.3345"/>
        <line class="i" x1="93.3148" y1="70.4808" x2="94.87" y2="58.1582"/>
        <polygon class="e" points="92.0728 71.3345 93.3148 70.4808 95.7351 73.0545 94.313 73.6785 92.0728 71.3345"/>
        <polygon class="h" points="96.2462 75.5035 98.4864 77.8475 99.9085 77.2236 101.3941 64.6641 98.4275 61.715 96.2462 75.5035"/>
        <line class="i" x1="97.4882" y1="74.6498" x2="99.0434" y2="62.3273"/>
        <polygon class="e" points="96.2462 75.5035 97.4882 74.6498 99.9085 77.2236 98.4864 77.8475 96.2462 75.5035"/>
        <path class="m" d="M79.1274,126.3675c6.9707-2.1549,13.0256-7.6295,15.0857-14.6287,2.0601-6.9992-.3641-15.3085-6.3414-19.4926-5.9773-4.1841-15.1763-3.3126-19.7277,2.3899-2.962,3.7111-3.9008,8.9213-7.5123,12.004-3.5025,2.9898-8.9575,3.0991-12.9246,.7607-3.9671-2.3384-6.4463-6.7693-7.0367-11.3363s.5511-9.2348,2.5603-13.3784c2.1207-4.3737,5.2593-8.4707,5.686-13.3127,.5237-5.9421-3.2946-11.5376-8.085-15.0921-4.7904-3.5545-10.5204-5.554-15.9225-8.0836-7.4055-3.4676-14.6133-8.3353-18.3133-15.6275-3.7-7.2921-2.7471-17.4051,3.8854-22.1879,1.5978-1.1522,3.5455-1.9694,5.5037-1.7546,1.9582,.2148,3.8521,1.6837,4.0935,3.6387,.154,1.2478-.3474,2.4772-.4558,3.7298-.2212,2.5583,1.247,5.0283,3.2223,6.669s4.4134,2.6002,6.8058,3.5332c.9873,.385,2.0792-.098,2.7596-.9104,.6804-.8124-.1091-2.3241-.506-3.3067-1.8917,1.099-4.4442,.1193-5.7988-1.5986s-1.8012-3.9615-2.1756-6.117c-.3744-2.1555-.7498-4.3978-2.003-6.191-2.3937-3.4253-7.5042-4.1179-11.2981-2.366-3.7939,1.7519-6.4021,5.3926-8.0847,9.2177C-.0148,18.7439-.779,25.501,1.2917,31.5094c2.161,6.2704,7.1643,11.1972,12.7085,14.8374,5.5442,3.6402,11.7117,6.2036,17.57,9.3131,3.1557,1.6751,6.3654,3.6493,8.124,6.7592,2.8156,4.9788,1.1199,11.1617-.2652,16.7113-1.2861,5.1527-2.2477,10.472-1.7342,15.758,.5135,5.2859,2.6505,10.5836,6.6969,14.0233,4.0463,3.4397,10.1651,4.6409,14.8439,2.1282,3.9702-2.1322,6.2609-6.3499,8.6333-10.1815,2.3724-3.8316,5.4618-7.7723,9.8857-8.6315,4.79-.9303,9.6504,3.5393,11.8722,7.4757,3.5412,6.2738,.9674,12.6927,.6222,13.5133-1.7402,4.1372-4.8089,6.3761-6.1205,7.2242-1.635,1.2418-4.0483,1.9403-6.0966,2.0807-1.0329,.0708-1.2718,1.6091-.9805,2.4801,.3284,.9819,1.1802,1.1899,2.076,1.3665Z"/>
        <path class="g" d="M80.6537,128.8386c-.61,.9358-1.6124,1.6067-2.71,1.8139s-2.2756-.052-3.1849-.7009c-.9579-.6837-1.5767-1.7324-2.3548-2.6153-1.1067-1.2558-2.5958-2.2023-4.2394-2.5193-1.3472-1.748-2.1515-3.8561-2.2168-6.0621,.255-.0998,.4771-.1901,.7321-.2899,1.128,.7641,2.6419,1.2433,3.9993,1.1262,1.2099-.1043,2.3746-.5742,3.5888-.595,1.2876-.022,2.5761,.4898,3.4978,1.3892,2.2067,2.1534,4.5718,5.8702,2.888,8.4531Z"/>
        <path class="l" d="M68.1646,124.8169c-1.3472-1.748-2.1515-3.8561-2.2168-6.0621,.255-.0998,.4771-.1901,.7321-.2899,1.0399,1.0992,1.3812,2.1845,1.7324,2.8494,.2321,.4394,.9895,2.435,.9895,2.435-.2083,.3889-.8212,.9453-1.2283,1.1151"/>
        <path class="k" d="M81.0837,127.8947c.7053-2.4832-1.3682-5.6065-3.318-7.5093-.9216-.8994-2.2102-1.4111-3.4978-1.3892-1.2142,.0207-2.3789,.4906-3.5888,.595-1.3574,.1171-2.8713-.3622-3.9993-1.1262,1.0399,1.0992,1.3812,2.1845,1.7324,2.8494,.2321,.4394,.9895,2.435,.9895,2.435,0,0,4.0962,1.6246,5.0713,1.4534s5.837-.2352,6.6101,2.6918"/>
        <ellipse class="f" cx="77.322" cy="127.951" rx="1.7138" ry="1.985" transform="translate(-69.642 100.5331) rotate(-48.2873)"/>
      </g>
    </g>
  </g>
</svg>