<?xml version="1.0" encoding="UTF-8"?>
<svg xmlns="http://www.w3.org/2000/svg" viewBox="0 0 180.1049 62.5915">
  <defs>
    <style>
      .d {
        fill: none;
      }

      .d, .e, .f, .g, .h, .i {
        stroke: #000;
        stroke-miterlimit: 10;
      }

      .d, .e, .f, .h, .i {
        stroke-width: .2927px;
      }

      .e, .g {
        fill: #4d4d4d;
      }

      .f {
        fill: #1a1a1a;
      }

      .g {
        stroke-width: .3909px;
      }

      .h {
        fill: #333;
      }

      .i {
        fill: #f2f2f2;
      }
    </style>
  </defs>
  <g id="a" data-name="Capa 1"/>
  <g id="b" data-name="Capa 2">
    <g id="c" data-name="Instruments Group">
      <g>
        <path class="g" d="M.2235,29.9315c7.4561,10.7344,16.2016,22.3967,24.5454,32.4564,48.642-4.1843,100.4994-13.3254,151.7359-20.1969,1.9793-.2655,3.4412-1.9707,3.404-3.9673-.0511-2.7407-.2246-5.6979-.0728-8.0791-5.8508-12.14-19.9686-19.9911-30.1253-28.2682-1.7215-1.4029-3.9782-1.9624-6.1597-1.5469C95.8676,9.4114,51.837,15.9191,3.2968,20.4054c-1.2542,2.8007-1.8191,6.7254-3.0733,9.5261Z"/>
        <path class="f" d="M29.4994,52.957l10.1268-1.5367-.675,2.0264,132.6486-19.7862-.4306-2.2009,8.6667-1.3151c-.1518,2.3812,.0217,5.3385,.0728,8.0792,.0373,1.9967-1.4247,3.7018-3.404,3.9673-51.2365,6.8715-103.094,16.0126-151.7359,20.1969l4.7305-9.431Z"/>
        <polygon class="i" points="38.789 50.3563 16.9956 22.6572 142.4098 5.137 167.9648 28.5268 167.1412 31.556 38.789 50.3563"/>
        <polygon class="d" points="38.789 50.3563 167.1412 31.556 167.9648 28.5268 38.8133 47.3073 38.789 50.3563"/>
        <polyline class="d" points="160.178 32.5759 160.5908 29.5991 135.4508 6.1092"/>
        <polyline class="d" points="152.1836 33.7469 152.3269 30.8008 128.1292 7.132"/>
        <polyline class="d" points="143.6393 34.9984 143.6437 32.0634 120.2722 8.2296"/>
        <polyline class="d" points="135.658 36.1675 135.9231 33.1861 111.2847 9.4852"/>
        <polyline class="d" points="128.207 37.2588 128.4775 34.2688 102.8849 10.6586"/>
        <polyline class="d" points="120.2126 38.4298 120.9378 35.5908 95.5366 11.6852"/>
        <polyline class="d" points="112.9188 39.4982 112.3544 36.6133 88.104 12.7235"/>
        <polyline class="d" points="105.35 40.6068 105.4531 37.6169 79.4216 13.9364"/>
        <polyline class="d" points="97.7484 41.7202 97.87 38.7196 71.4196 15.0543"/>
        <polyline class="d" points="89.0731 42.9909 89.4618 39.9422 64.3806 16.0376"/>
        <polyline class="d" points="81.4055 44.114 81.3488 41.122 57.0739 17.0583"/>
        <polyline class="d" points="73.3724 45.2907 73.608 42.2476 48.6517 18.2349"/>
        <polyline class="d" points="65.3649 46.4636 65.77 43.3874 42.9948 19.0252"/>
        <polyline class="d" points="57.1086 47.6729 57.2177 44.631 34.3209 20.2369"/>
        <polyline class="d" points="48.132 48.9877 48.2595 45.9337 25.647 21.4486"/>
        <line class="d" x1="38.8133" y1="47.3073" x2="17.7557" y2="22.5511"/>
        <polygon class="d" points="38.9513 53.4467 39.6262 51.4203 16.9956 22.6572 142.4098 5.137 171.1693 31.4597 171.5999 33.6606 38.9513 53.4467"/>
        <line class="d" x1="3.2968" y1="20.4054" x2="29.4994" y2="52.957"/>
        <polygon class="e" points="44.8754 35.3624 49.5556 34.8303 50.0834 32.6368 36.8587 19.8824 30.8404 20.7231 44.8754 35.3624"/>
        <line class="d" x1="44.9791" y1="33.1754" x2="32.0898" y2="20.5486"/>
        <polygon class="h" points="44.8754 35.3624 44.9791 33.1754 50.0834 32.6368 49.5556 34.8303 44.8754 35.3624"/>
        <polygon class="e" points="53.8787 34.1029 58.5589 33.5709 59.0867 31.3774 45.862 18.6229 39.8437 19.4637 53.8787 34.1029"/>
        <line class="d" x1="53.9824" y1="31.9159" x2="41.0931" y2="19.2891"/>
        <polygon class="h" points="53.8787 34.1029 53.9824 31.9159 59.0867 31.3774 58.5589 33.5709 53.8787 34.1029"/>
        <polygon class="e" points="68.0748 32.176 72.755 31.6439 73.2827 29.4505 60.0581 16.696 54.0397 17.5368 68.0748 32.176"/>
        <line class="d" x1="68.1785" y1="29.989" x2="55.2892" y2="17.3622"/>
        <polygon class="h" points="68.0748 32.176 68.1785 29.989 73.2827 29.4505 72.755 31.6439 68.0748 32.176"/>
        <polygon class="e" points="76.2859 30.9239 80.9661 30.3919 81.4938 28.1984 68.2692 15.4439 62.2508 16.2847 76.2859 30.9239"/>
        <line class="d" x1="76.3896" y1="28.7369" x2="63.5003" y2="16.1101"/>
        <polygon class="h" points="76.2859 30.9239 76.3896 28.7369 81.4938 28.1984 80.9661 30.3919 76.2859 30.9239"/>
        <polygon class="e" points="84.2666 29.9259 88.9468 29.3939 89.4745 27.2004 76.2499 14.446 70.2315 15.2867 84.2666 29.9259"/>
        <line class="d" x1="84.3703" y1="27.739" x2="71.481" y2="15.1122"/>
        <polygon class="h" points="84.2666 29.9259 84.3703 27.739 89.4745 27.2004 88.9468 29.3939 84.2666 29.9259"/>
        <polygon class="e" points="99.3743 27.7852 104.0546 27.2532 104.5823 25.0597 91.3577 12.3052 85.3393 13.146 99.3743 27.7852"/>
        <line class="d" x1="99.478" y1="25.5982" x2="86.5887" y2="12.9715"/>
        <polygon class="h" points="99.3743 27.7852 99.478 25.5982 104.5823 25.0597 104.0546 27.2532 99.3743 27.7852"/>
        <polygon class="e" points="107.5854 26.5331 112.2656 26.0011 112.7934 23.8076 99.5687 11.0531 93.5504 11.8939 107.5854 26.5331"/>
        <line class="d" x1="107.6891" y1="24.3461" x2="94.7998" y2="11.7194"/>
        <polygon class="h" points="107.5854 26.5331 107.6891 24.3461 112.7934 23.8076 112.2656 26.0011 107.5854 26.5331"/>
        <polygon class="e" points="122.838 24.6099 127.5182 24.0779 128.0459 21.8844 114.8213 9.13 108.8029 9.9707 122.838 24.6099"/>
        <line class="d" x1="122.9417" y1="22.423" x2="110.0524" y2="9.7962"/>
        <polygon class="h" points="122.838 24.6099 122.9417 22.423 128.0459 21.8844 127.5182 24.0779 122.838 24.6099"/>
        <polygon class="e" points="131.0357 23.2896 135.7159 22.7575 136.2436 20.5641 123.019 7.8096 117.0006 8.6504 131.0357 23.2896"/>
        <line class="d" x1="131.1394" y1="21.1026" x2="118.2501" y2="8.4758"/>
        <polygon class="h" points="131.0357 23.2896 131.1394 21.1026 136.2436 20.5641 135.7159 22.7575 131.0357 23.2896"/>
        <polygon class="e" points="139.5259 22.1246 144.2061 21.5926 144.7338 19.3991 131.5092 6.6447 125.4908 7.4854 139.5259 22.1246"/>
        <line class="d" x1="139.6296" y1="19.9377" x2="126.7403" y2="7.3109"/>
        <polygon class="h" points="139.5259 22.1246 139.6296 19.9377 144.7338 19.3991 144.2061 21.5926 139.5259 22.1246"/>
      </g>
    </g>
  </g>
</svg>