<?xml version="1.0" encoding="UTF-8"?>
<svg xmlns="http://www.w3.org/2000/svg" viewBox="0 0 130.8856 108.8554">
  <defs>
    <style>
      .d {
        fill: #333;
      }

      .d, .e, .f, .g, .h, .i, .j, .k, .l, .m, .n, .o, .p, .q {
        stroke: #000;
      }

      .d, .f, .g, .h, .i, .j, .n, .o, .p, .q {
        stroke-width: .2463px;
      }

      .d, .g, .j {
        stroke-linejoin: round;
      }

      .e {
        stroke-linecap: round;
        stroke-width: .3695px;
      }

      .e, .f, .h, .i, .k, .l, .m, .n, .o, .p, .q {
        stroke-miterlimit: 10;
      }

      .e, .l, .p {
        fill: none;
      }

      .f {
        fill: #b57b2a;
      }

      .r, .q {
        fill: #4d4d4d;
      }

      .g {
        fill: gray;
      }

      .s, .h {
        fill: #00792d;
      }

      .i {
        fill: #f2d709;
      }

      .j {
        fill: #666;
      }

      .k {
        stroke-width: .2309px;
      }

      .k, .m {
        fill: #b3b3b3;
      }

      .l, .m {
        stroke-width: .4926px;
      }

      .n {
        fill: #f2f2f2;
      }

      .o {
        fill: #d42008;
      }
    </style>
  </defs>
  <g id="a" data-name="Capa 1"/>
  <g id="b" data-name="Capa 2">
    <g id="c" data-name="Instruments Group">
      <g>
        <rect class="d" x=".1232" y=".1232" width="130.6393" height="108.6091" rx="5.9056" ry="5.9056"/>
        <rect class="s" x="6.0288" y=".1232" width="118.828" height="108.6091"/>
        <rect class="j" x="6.0288" y="5.7017" width="118.828" height="40.5614"/>
        <circle class="m" cx="47.8838" cy="38.3164" r="4.9165"/>
        <circle class="m" cx="64.0381" cy="38.3164" r="4.9165"/>
        <circle class="m" cx="80.1924" cy="38.3164" r="4.9165"/>
        <circle class="m" cx="96.3467" cy="38.3164" r="4.9165"/>
        <circle class="m" cx="112.5011" cy="38.3164" r="4.9165"/>
        <rect class="n" x="37.9629" y="65.1213" width="86.8939" height="43.611"/>
        <rect class="j" x="6.0288" y="65.1213" width="31.9341" height="43.611"/>
        <rect class="g" x="6.0288" y="46.2631" width="118.828" height="19.1568"/>
        <rect class="n" x="42.9672" y="11.2328" width="73.7027" height="17.7346"/>
        <circle class="g" cx="24.5652" cy="26.9925" r="11.9411"/>
        <circle class="m" cx="24.5652" cy="26.9925" r="7.8593"/>
        <line class="e" x1="17.0676" y1="59.5543" x2="17.648" y2="56.5995"/>
        <line class="e" x1="35.4663" y1="53.1552" x2="37.4279" y2="51.0083"/>
        <rect class="h" x="46.5668" y="50.0285" width="9.2185" height="9.2185"/>
        <rect class="r" x="50.2117" y="60.3179" width="1.9287" height="1.9287"/>
        <rect class="r" x="59.4302" y="60.3179" width="1.9287" height="1.9287"/>
        <rect class="r" x="68.6487" y="60.3179" width="1.9287" height="1.9287"/>
        <rect class="r" x="77.8672" y="60.3179" width="1.9287" height="1.9287"/>
        <rect class="r" x="87.0857" y="60.3179" width="1.9287" height="1.9287"/>
        <rect class="r" x="96.3042" y="60.3179" width="1.9287" height="1.9287"/>
        <rect class="r" x="105.5227" y="60.3179" width="1.9287" height="1.9287"/>
        <rect class="r" x="114.7412" y="60.3179" width="1.9287" height="1.9287"/>
        <rect class="k" x="55.7853" y="50.0285" width="9.2185" height="9.2185"/>
        <rect class="o" x="65.0038" y="50.0285" width="9.2185" height="9.2185"/>
        <rect class="k" x="74.2223" y="50.0285" width="9.2185" height="9.2185"/>
        <rect class="i" x="83.4408" y="50.0285" width="9.2185" height="9.2185"/>
        <rect class="k" x="92.6593" y="50.0285" width="9.2185" height="9.2185"/>
        <rect class="k" x="101.8778" y="50.0285" width="9.2185" height="9.2185"/>
        <rect class="k" x="111.0963" y="50.0285" width="9.2185" height="9.2185"/>
        <circle class="l" cx="18.0334" cy="54.6377" r="4.9165"/>
        <circle class="l" cx="34.1118" cy="54.6377" r="4.9165"/>
        <line class="e" x1="47.6782" y1="35.8669" x2="47.4725" y2="33.4174"/>
        <line class="e" x1="66.6475" y1="38.2486" x2="68.9527" y2="38.1887"/>
        <line class="e" x1="78.459" y1="40.5335" x2="77.0187" y2="42.071"/>
        <line class="e" x1="93.7602" y1="37.6888" x2="91.5691" y2="37.1572"/>
        <line class="e" x1="114.3847" y1="36.4996" x2="116.0396" y2="34.9035"/>
        <rect class="r" x="13.907" y="71.0213" width="6.3213" height="2.4583"/>
        <rect class="r" x="23.7401" y="71.0213" width="6.3213" height="2.4583"/>
        <rect class="q" x="13.1169" y="74.7087" width="7.9016" height="28.0945"/>
        <rect class="q" x="22.9499" y="74.7087" width="7.9016" height="28.0945"/>
        <line class="p" x1="99.683" y1="65.4198" x2="99.683" y2="108.7322"/>
        <line class="p" x1="64.0381" y1="65.1213" x2="64.0381" y2="108.7322"/>
        <line class="p" x1="46.5668" y1="97.4477" x2="46.5668" y2="108.7322"/>
        <line class="p" x1="55.3464" y1="97.4477" x2="55.3464" y2="108.7322"/>
        <line class="p" x1="73.4322" y1="97.4477" x2="73.4322" y2="108.7322"/>
        <line class="p" x1="81.4099" y1="108.7322" x2="81.4099" y2="97.4477"/>
        <line class="p" x1="90.64" y1="97.4477" x2="90.64" y2="108.7322"/>
        <line class="p" x1="108.1991" y1="97.4477" x2="108.1991" y2="108.7322"/>
        <line class="p" x1="116.803" y1="97.4477" x2="116.803" y2="108.7322"/>
        <rect class="d" x="44.0208" y="65.1213" width="5.0921" height="32.3265"/>
        <rect class="d" x="52.8003" y="65.1213" width="5.0921" height="32.3265"/>
        <rect class="d" x="70.8861" y="65.1213" width="5.0921" height="32.3265"/>
        <rect class="d" x="78.8638" y="65.1213" width="5.0921" height="32.3265"/>
        <rect class="d" x="88.094" y="65.1213" width="5.0921" height="32.3265"/>
        <rect class="d" x="105.653" y="65.1213" width="5.0921" height="32.3265"/>
        <rect class="d" x="114.257" y="65.1213" width="5.0921" height="32.3265"/>
        <rect class="f" x="13.907" y="84.9808" width="6.3213" height="7.9016"/>
        <rect class="f" x="23.7401" y="75.8501" width="6.3213" height="7.9016"/>
        <line class="e" x1="30.8515" y1="22.2753" x2="26.9007" y2="25.2399"/>
        <circle class="d" cx="14.7519" cy="26.9925" r=".6476"/>
      </g>
    </g>
  </g>
</svg>