<?xml version="1.0" encoding="UTF-8"?>
<svg xmlns="http://www.w3.org/2000/svg" viewBox="0 0 177.3973 120.302">
  <defs>
    <style>
      .d {
        fill: #754c24;
      }

      .d, .e, .f {
        stroke: #000;
        stroke-width: .2747px;
      }

      .d, .f {
        stroke-miterlimit: 10;
      }

      .e {
        fill: #333;
        stroke-linejoin: round;
      }

      .g {
        fill: #ffda99;
      }

      .f {
        fill: #fb3;
      }
    </style>
  </defs>
  <g id="a" data-name="Capa 1"/>
  <g id="b" data-name="Capa 2">
    <g id="c" data-name="Instruments Group">
      <g>
        <path class="f" d="M149.9663,93.4468c-.2517,2.8541-.8147,4.2781,.3568,6.8928,4.8767,2.4365,10.2534,6.1065,15.3741,7.9796l2.8798-4.7131c-6.2036-3.3864-12.4072-6.7729-18.6107-10.1593Z"/>
        <path class="f" d="M42.9451,66.1198c-4.4485-1.1777-8.187-4.7447-9.572-9.1332s-.3713-9.4553,2.5954-12.9731c1.2731-1.5097,3.0944-2.8063,5.0587-2.602,1.7317,.1801,3.7054,1.3244,4.953,2.5388-4.3026,.781-7.8186,4.7301-8.0969,9.0942s2.7076,8.7277,6.8761,10.049c-.4691,1.0019-1.3453,2.0245-1.8143,3.0264Z"/>
        <path class="e" d="M99.929,58.6806l-1.7542,3.059c.5789,.3916,1.2836,.8862,1.9759,.9815,.5028-.9155,1.0068-1.8394,1.5096-2.7548,.5016,.2395,1.0434,.4077,1.545,.6471,.2618-.209,.4438-.5426,.4797-.8757-1.572-.8668-3.1966-2.0446-4.7686-2.9114-.3047,.1981-.5955,.7567-.3508,1.0253,.4235,.0816,1.0673,.5155,1.3634,.829Z"/>
        <path class="f" d="M94.94,62.167c.2098-.6831,.5278-1.4723,1.2238-1.634,.3904-.0907,.7938,.0519,1.1646,.204,1.3009,.5334,2.5424,1.2116,3.6943,2.018,.6549,.4585,.661,1.575,.4013,2.331-.075,.2183-.3058,.5751-.4429,.7607-1.7533-1.1386-4.1555-2.777-6.0411-3.6797Z"/>
        <path class="e" d="M108.4273,63.4222l-1.7542,3.059c.5789,.3916,1.2836,.8862,1.9759,.9815,.5028-.9155,1.0068-1.8394,1.5096-2.7548,.5016,.2395,1.0434,.4077,1.545,.6471,.2618-.209,.4438-.5426,.4797-.8757-1.572-.8668-3.1966-2.0446-4.7686-2.9114-.3047,.1981-.5955,.7567-.3508,1.0253,.4235,.0816,1.0673,.5155,1.3634,.829Z"/>
        <path class="f" d="M103.4383,66.9086c.2098-.6831,.5278-1.4723,1.2238-1.634,.3904-.0907,.7938,.0519,1.1646,.204,1.3009,.5334,2.5424,1.2116,3.6943,2.018,.6549,.4585,.661,1.575,.4013,2.331-.075,.2183-.3058,.5751-.4429,.7607-1.7533-1.1386-4.1555-2.777-6.0411-3.6797Z"/>
        <path class="e" d="M117.8096,68.5011l-1.7542,3.059c.5789,.3916,1.2836,.8862,1.9759,.9815,.5028-.9155,1.0068-1.8394,1.5096-2.7548,.5016,.2395,1.0434,.4077,1.545,.6471,.2618-.209,.4438-.5426,.4797-.8757-1.572-.8668-3.1966-2.0446-4.7686-2.9114-.3047,.1981-.5955,.7567-.3508,1.0253,.4235,.0816,1.0673,.5155,1.3634,.829Z"/>
        <path class="f" d="M112.8206,71.9875c.2098-.6831,.5278-1.4723,1.2238-1.634,.3904-.0907,.7938,.0519,1.1646,.204,1.3009,.5334,2.5424,1.2116,3.6943,2.018,.6549,.4585,.661,1.575,.4013,2.331-.075,.2183-.3058,.5751-.4429,.7607-1.7533-1.1386-4.1555-2.777-6.0411-3.6797Z"/>
        <path class="f" d="M122.3973,107.8449c.8605-1.9193,1.1503-3.5678-.6907-4.5851L55.3076,66.4586c-1.6891-.8099-3.5684-1.9097-4.4012-1.9792s-1.7392,.3348-2.0763,1.0996,.3357,2.2834,1.159,2.4271c8.5488,5.5889,43.6544,23.5046,51.1072,27.773,3.101,1.776,27.4045,15.7174,30.7138,17.0659s7.1874,1.7789,10.4052,.2245c2.7284-1.318,4.7273-4.0455,5.1623-7.0442,.4351-2.9987-.341-6.2452-2.9331-7.8144-22.1102-13.3849-100.8974-59.0091-126.1611-64.4647-3.6205-.7818-7.5922,.2957-10.3211,2.8003-.7974,.7318-1.4926,1.5748-2.3375,2.2512-.8715,.6977-1.9606,1.2201-3.0745,1.0851-1.4074-.1706-2.2984-1.5484-2.373-2.9641C-.6305,21.5853,10.9761,3.9784,20.059,.3614c1.0004-.3984,2.1222-.3155,2.5812,.6585,.3752,.7961,.3064,1.725,.2799,2.6078-.1023,3.4133,1.7541,8.7054,3.1478,11.823,4.7115,10.5393,60.3532,41.9549,122.4305,75.3792,5.2451,2.8241,6.2749,10.2423,5.4839,16.1467-.7909,5.9043-5.109,11.4077-10.9003,12.8031-6.0597,1.46-12.2149-1.5008-17.746-4.3747-8.6775-4.5087-68.6753-37.2039-77.3528-41.7125-2.5381-1.3187-4.7141-4.3346-4.9071-7.1884s1.4712-5.7805,4.0801-6.9531,5.7359-.3904,9.8581,1.9879l68.0635,37.982c.9551,.533,1.7902,1.2712,2.3808,2.1918,.5132,.8,.934,1.8419,.8686,3.0627-.157,2.9301-1.5559,5.4758-1.5559,5.4758"/>
        <path class="f" d="M92.0575,67.6691c-5.6642,9.1122-11.097,18.3682-16.2914,27.7561-.6035-.1859-1.2817-.1205-1.7759,.2725-.2436,.6659-.9133,1.3986-1.1569,2.0645,1.7397,2.4022,4.2697,4.252,7.2256,4.496,1.0899,.0899,1.894-1.3756,1.7606-2.461-.3009-.3057-.6977-1.0331-.9985-1.3388,6.0483-8.9159,11.3993-18.5468,16.5268-28.0222-.9721-1.5106-3.5241-2.4392-5.2903-2.7671Z"/>
        <path class="f" d="M101.0306,72.5974c-5.6642,9.1122-11.097,18.3682-16.2914,27.7561-.6035-.1859-1.2817-.1205-1.7759,.2725-.2436,.6659-.9133,1.3986-1.1569,2.0645,1.7397,2.4022,4.2697,4.252,7.2256,4.496,1.0899,.0899,1.894-1.3756,1.7606-2.461-.3009-.3057-.6977-1.0331-.9985-1.3388,6.0483-8.9159,11.3993-18.5468,16.5268-28.0222-.9721-1.5106-3.5241-2.4392-5.2903-2.7671Z"/>
        <path class="f" d="M109.9816,77.5135c-5.6642,9.1122-11.097,18.3682-16.2914,27.7561-.6035-.1859-1.2817-.1205-1.7759,.2725-.2436,.6659-.9133,1.3986-1.1569,2.0645,1.7397,2.4022,4.2697,4.252,7.2256,4.496,1.0899,.0899,1.894-1.3756,1.7606-2.461-.3009-.3057-.6977-1.0331-.9985-1.3388,6.0483-8.9159,11.3993-18.5468,16.5268-28.0222-.9721-1.5106-3.5241-2.4392-5.2903-2.7671Z"/>
        <path d="M80.791,98.5925c-.5953-.2361-1.0492-.6042-1.5321-.9919,.4916,.288,1.0479,.5995,1.592,.7238l-.0599,.2681h0Z"/>
        <path d="M89.7098,103.4909c-.5953-.2362-1.0492-.6042-1.5321-.992,.4915,.2881,1.0479,.5996,1.592,.7239l-.0599,.2681h0Z"/>
        <path d="M98.7243,108.4419c-.5952-.2361-1.0492-.6042-1.5321-.9919,.4916,.2881,1.0479,.5996,1.592,.7239l-.0599,.2681h0Z"/>
        <path class="d" d="M177.1966,105.5757c-1.3268-1.3682-3.7188-2.3442-4.879-1.6142-.7651-1.134-2.5661-1.1646-3.6154-.287l-.1252-.0683-2.8798,4.7131,.0102,.0039c-.34,1.0558,.4009,2.0711,1.6159,2.4968-.33,.7292,.0828,1.5064,.4087,1.939,1.0056,1.1687,2.1275,1.5717,4.0129,1.9513,1.4927-.1283,6.1074-8.4584,5.4516-9.1347Z"/>
        <path class="g" d="M12.957,7.5601c1.5695-1.7712,3.3393-3.3715,5.3915-4.5889,.7184-.3945,1.4464-.7893,2.5037-.847,.3625-.0197,.6723,.2581,.6921,.6205,.0909,1.7844,.2254,3.6365,.5164,5.4417,.5683,3.5738,1.6684,7.078,3.5042,10.2123,.9609,1.5363,2.1369,2.9379,3.5433,4.1138l-.0817,.1104c-6.112-4.5001-8.3087-12.524-8.892-19.7774l.6958,.6921c-2.7916,.5351-5.3059,2.694-7.7828,4.1254l-.0906-.103h0Z"/>
      </g>
    </g>
  </g>
</svg>